<svg xmlns="http://www.w3.org/2000/svg" width="250" height="250" viewBox="0 0 250 250" version="1.1"><path d="M 0 125 L 0 250 24.423 250 L 48.846 250 52.173 244.710 C 55.364 239.636, 55.602 239.473, 58 240.709 C 60.255 241.872, 60.722 241.747, 62.760 239.432 C 64.722 237.203, 65.620 236.928, 69.582 237.341 C 73.387 237.738, 74.046 237.562, 73.555 236.281 C 72.813 234.349, 74.845 231.783, 76.363 232.735 C 76.988 233.126, 78.154 233.459, 78.952 233.474 C 79.751 233.488, 80.676 234.625, 81.009 236 C 81.599 238.441, 81.627 238.448, 82.199 236.304 C 82.913 233.627, 86.726 233.562, 87.568 236.213 C 88.260 238.394, 89.352 238.485, 91 236.500 C 91.685 235.675, 92.752 235.007, 93.372 235.015 C 93.993 235.024, 93.838 235.449, 93.029 235.961 C 91.356 237.019, 91.459 237.148, 95.297 238.798 C 99.183 240.468, 100 240.315, 100 237.918 L 100 235.837 103.347 237.905 C 105.187 239.043, 106.917 239.750, 107.191 239.476 C 107.464 239.202, 109.615 239.658, 111.970 240.489 C 117.445 242.421, 117.319 242.448, 116.748 239.464 C 116.281 237.017, 116.331 236.990, 118.193 238.675 C 119.735 240.071, 120.285 240.157, 120.936 239.103 C 121.507 238.180, 121.954 238.117, 122.434 238.893 C 122.810 239.502, 122.586 240, 121.937 240 C 121.060 240, 121.079 240.391, 122.010 241.512 C 122.897 242.581, 123.629 242.723, 124.506 241.995 C 125.188 241.429, 126.479 241.246, 127.373 241.590 C 128.849 242.156, 129.491 241.111, 129.118 238.750 C 129.053 238.338, 129.450 238, 130 238 C 130.550 238, 131 238.858, 131 239.906 C 131 241.320, 131.517 241.678, 133 241.290 C 135.006 240.765, 135.884 237, 134 237 C 133.450 237, 133 236.592, 133 236.094 C 133 235.595, 133.831 235.405, 134.847 235.670 C 136.185 236.020, 136.566 236.820, 136.230 238.577 C 135.843 240.604, 136.154 240.987, 138.133 240.921 C 139.435 240.878, 139.938 240.615, 139.250 240.338 C 138.563 240.060, 138 239.375, 138 238.816 C 138 238.185, 140.283 237.980, 144 238.278 C 147.300 238.541, 150 238.395, 150 237.952 C 150 237.509, 149.213 236.981, 148.250 236.780 C 146.765 236.468, 146.859 236.215, 148.871 235.106 C 150.288 234.326, 150.968 234.243, 150.562 234.900 C 149.731 236.244, 151.234 236.363, 152.550 235.058 C 153.072 234.539, 156.108 234.012, 159.295 233.885 C 162.483 233.758, 165.858 233.057, 166.795 232.327 C 168.390 231.086, 168.375 230.903, 166.559 229.500 C 164.338 227.784, 162 227.527, 162 229 C 162 229.550, 161.530 230, 160.956 230 C 160.382 230, 160.045 229.216, 160.206 228.258 C 160.541 226.273, 168.002 223.926, 171.266 224.780 C 173.244 225.297, 173.248 225.346, 171.403 226.695 C 169.792 227.872, 169.729 228.215, 170.978 228.987 C 172.827 230.129, 173.957 228.491, 173.408 225.464 C 173.005 223.241, 175.479 220.145, 176.691 221.357 C 177.044 221.711, 176.808 222, 176.167 222 C 175.525 222, 175 222.477, 175 223.059 C 175 223.641, 175.427 223.854, 175.950 223.531 C 176.472 223.208, 177.388 223.857, 177.985 224.972 C 178.645 226.205, 180.082 227, 181.652 227 C 183.707 227, 184.131 227.392, 183.730 228.925 C 183.383 230.252, 183.644 230.690, 184.571 230.334 C 185.427 230.006, 186.174 230.852, 186.624 232.659 C 187.013 234.222, 187.974 235.975, 188.759 236.555 C 189.545 237.135, 190.258 238.780, 190.344 240.209 C 190.430 241.639, 190.749 242.655, 191.053 242.467 C 191.357 242.279, 192.705 243.904, 194.049 246.078 L 196.491 250.031 223.496 249.766 L 250.500 249.500 250.754 124.750 L 251.008 0 125.504 0 L 0 0 0 125 M 0.485 125.500 C 0.485 194.250, 0.604 222.228, 0.750 187.672 C 0.896 153.117, 0.896 96.867, 0.750 62.672 C 0.604 28.478, 0.485 56.750, 0.485 125.500 M 129.079 20.583 C 129.127 21.748, 129.364 21.985, 129.683 21.188 C 129.972 20.466, 129.936 19.603, 129.604 19.271 C 129.272 18.939, 129.036 19.529, 129.079 20.583 M 151 25 C 151 25.550, 151.450 26, 152 26 C 152.550 26, 153 25.550, 153 25 C 153 24.450, 152.550 24, 152 24 C 151.450 24, 151 24.450, 151 25 M 174 31.882 C 174 32.432, 174.450 33.160, 175 33.500 C 175.550 33.840, 176 33.668, 176 33.118 C 176 32.568, 175.550 31.840, 175 31.500 C 174.450 31.160, 174 31.332, 174 31.882 M 114.439 33.902 C 114.746 34.398, 113.391 35.752, 111.428 36.910 C 108.187 38.822, 107.663 38.877, 105.707 37.508 C 103.038 35.638, 101.374 35.541, 102.869 37.342 C 103.481 38.080, 103.687 38.980, 103.325 39.342 C 102.241 40.426, 100.982 40.086, 101.250 38.782 C 101.414 37.984, 100.412 37.661, 98.349 37.847 C 96.124 38.047, 94.586 37.472, 93.110 35.888 C 91.961 34.655, 90.716 33.950, 90.344 34.323 C 89.971 34.695, 90.247 35, 90.956 35 C 92.006 35, 92.007 35.287, 90.961 36.547 C 90.254 37.398, 89.412 37.693, 89.088 37.201 C 88.765 36.710, 87.263 36.005, 85.750 35.635 C 83.456 35.074, 83 35.287, 83 36.922 C 83 39.435, 81.391 40.461, 80.616 38.442 C 80.233 37.443, 80.427 37.146, 81.166 37.603 C 81.842 38.021, 82.036 37.868, 81.641 37.228 C 80.853 35.953, 74.695 37.419, 74.165 39.008 C 73.980 39.560, 73.348 39.715, 72.760 39.352 C 72.172 38.988, 71.978 39.155, 72.329 39.723 C 72.680 40.291, 71.399 42.417, 69.483 44.449 C 67.568 46.480, 65.993 47.773, 65.985 47.321 C 65.976 46.870, 65.560 47.147, 65.060 47.938 C 64.467 48.875, 64.646 50.084, 65.575 51.410 C 67.449 54.086, 67.382 55.361, 65.407 54.603 C 64.345 54.195, 63.640 54.659, 63.291 55.996 C 62.697 58.266, 62.152 58.388, 58.613 57.043 C 56.489 56.235, 56.193 56.339, 56.718 57.707 C 57.079 58.649, 56.927 59.073, 56.354 58.719 C 55.811 58.383, 54.665 59.659, 53.806 61.554 C 52.375 64.710, 52.381 65.005, 53.872 65.063 C 54.935 65.105, 54.691 65.451, 53.166 66.062 C 50.043 67.314, 51.001 69.554, 54.545 69.286 L 57.372 69.073 55.240 71.204 C 53.460 72.985, 52.853 73.123, 51.555 72.045 C 50.505 71.174, 50 71.120, 50 71.878 C 50 72.495, 49.212 73.014, 48.250 73.030 C 46.620 73.059, 46.624 73.133, 48.311 74.114 C 49.307 74.693, 50.833 74.894, 51.702 74.561 C 52.914 74.096, 53.030 74.259, 52.199 75.261 C 51.509 76.092, 51.452 77.101, 52.042 78.034 C 52.552 78.840, 52.969 80.175, 52.969 81 C 52.969 82.082, 52.755 82.163, 52.200 81.290 C 51.649 80.423, 51.066 80.665, 50.142 82.145 C 49.378 83.367, 49.304 83.930, 49.960 83.525 C 50.688 83.075, 50.922 83.648, 50.641 85.193 C 50.389 86.587, 51.027 88.550, 52.208 90.008 L 54.201 92.470 56.267 89.985 C 57.693 88.269, 58.126 88.067, 57.666 89.332 C 57.300 90.339, 57 91.828, 57 92.641 C 57 93.453, 56.550 93.840, 56 93.500 C 55.450 93.160, 54.438 93.233, 53.750 93.662 C 53.063 94.091, 51.655 94.574, 50.622 94.734 C 49.057 94.978, 48.838 94.558, 49.307 92.216 C 50.094 88.279, 48.592 86.026, 47.072 88.865 C 46.444 90.039, 46.249 91, 46.639 91 C 47.029 91, 46.332 92.082, 45.089 93.405 L 42.829 95.811 44.914 96.473 C 46.062 96.837, 47 97.603, 47 98.174 C 47 98.746, 47.638 98.969, 48.417 98.670 C 49.197 98.371, 50.097 98.810, 50.417 99.645 C 51.216 101.727, 51.161 102, 49.941 102 C 49.359 102, 49.189 101.503, 49.564 100.896 C 49.939 100.289, 49.104 100.541, 47.707 101.456 C 46.311 102.371, 44.900 103.819, 44.572 104.673 C 44.063 105.999, 43.723 106.026, 42.238 104.863 C 40.668 103.632, 40.632 103.668, 41.863 105.239 C 42.613 106.195, 43.626 106.731, 44.113 106.430 C 44.601 106.129, 45 106.373, 45 106.972 C 45 107.572, 44.325 108.322, 43.500 108.638 C 41.175 109.531, 41.729 111.946, 44.500 113 C 46.946 113.930, 47.981 116, 46 116 C 45.450 116, 45 117.575, 45 119.500 C 45 122.003, 44.556 123, 43.441 123 C 42.584 123, 42.148 123.430, 42.473 123.956 C 42.798 124.482, 43.777 124.639, 44.648 124.305 C 46.010 123.782, 46.062 124.016, 45.017 125.969 C 44.224 127.451, 44.183 128.005, 44.900 127.562 C 45.918 126.933, 46.108 127.473, 46.458 132.001 C 46.522 132.827, 46.969 134.141, 47.451 134.921 C 48.112 135.990, 47.917 136.182, 46.664 135.701 C 44.021 134.687, 44.751 136.377, 47.508 137.656 C 49.697 138.671, 50 138.580, 50 136.906 C 50 135.858, 50.638 135, 51.417 135 C 52.196 135, 52.994 134.519, 53.189 133.932 C 53.385 133.344, 53.545 134.624, 53.545 136.776 C 53.545 139.258, 54.226 141.369, 55.407 142.550 C 56.589 143.732, 56.852 144.549, 56.128 144.791 C 55.501 145, 55.302 145.695, 55.686 146.335 C 56.070 146.976, 55.538 146.825, 54.505 146 C 52.806 144.644, 52.687 144.663, 53.262 146.199 C 53.701 147.371, 53.480 147.738, 52.550 147.381 C 51.809 147.096, 50.905 147.344, 50.542 147.932 C 49.512 149.599, 46.208 149.187, 45.080 147.250 C 44.519 146.287, 44.047 146.026, 44.030 146.668 C 44.014 147.311, 43.712 148.587, 43.360 149.505 C 42.855 150.821, 43.225 151.102, 45.110 150.837 C 47.316 150.526, 47.503 150.842, 47.545 154.932 C 47.575 157.899, 48.070 159.518, 49.045 159.832 C 49.845 160.089, 50.831 160.795, 51.235 161.400 C 51.751 162.173, 51.974 162.143, 51.985 161.300 C 51.993 160.640, 51.274 159.693, 50.386 159.196 C 49.041 158.443, 48.975 157.915, 49.990 156.019 C 50.951 154.222, 50.945 153.584, 49.958 152.974 C 48.669 152.177, 49.305 149, 50.753 149 C 52.519 149, 54.776 154.484, 53.929 156.718 C 53.050 159.037, 54.216 160.603, 56 159.500 C 56.591 159.135, 57 160.255, 57 162.237 C 57 165.132, 57.332 165.587, 59.417 165.546 C 63.014 165.477, 63.595 164.251, 61.069 162.059 C 59.830 160.985, 59.072 159.692, 59.385 159.187 C 59.697 158.681, 59.063 157.462, 57.976 156.479 C 56.103 154.783, 55.269 152, 56.634 152 C 57.605 152, 61.997 157.362, 61.999 158.550 C 61.999 159.127, 62.563 160.162, 63.250 160.850 C 63.938 161.538, 64.500 163.422, 64.500 165.038 C 64.500 167.377, 64.144 167.863, 62.756 167.423 C 61.458 167.011, 61.171 167.282, 61.633 168.485 C 61.974 169.373, 63.546 170.359, 65.126 170.675 C 66.707 170.991, 68 171.869, 68 172.625 C 68 173.381, 68.367 174, 68.815 174 C 69.263 174, 70.381 175.575, 71.299 177.500 C 72.925 180.910, 72.471 182.071, 70.344 179.944 C 69.604 179.204, 68.911 179.800, 68.023 181.944 C 67.327 183.625, 66.555 185, 66.307 185 C 65.284 185, 63.144 182.190, 63.725 181.609 C 64.071 181.263, 63.487 180.286, 62.427 179.438 C 60.569 177.952, 60.584 177.920, 62.836 178.543 C 65.016 179.146, 65.090 179.033, 63.950 176.845 C 62.281 173.640, 62.437 173.710, 60.167 175.127 C 58.621 176.093, 58.366 176.816, 59.093 178.174 C 59.867 179.619, 59.712 179.859, 58.273 179.447 C 57.298 179.167, 57.513 179.471, 58.750 180.122 C 59.988 180.773, 61.004 181.799, 61.008 182.403 C 61.012 183.006, 62.248 184.073, 63.755 184.772 C 66.093 185.859, 66.667 185.809, 67.674 184.432 C 68.471 183.342, 69.606 183.031, 71.177 183.475 C 73.059 184.007, 73.215 183.914, 72 182.989 C 70.667 181.975, 70.667 181.896, 72 182.281 C 72.825 182.520, 73.435 183.470, 73.355 184.393 C 73.240 185.732, 73.497 185.832, 74.629 184.893 C 75.410 184.245, 76.342 184.009, 76.701 184.368 C 77.060 184.727, 76.487 185.677, 75.427 186.479 C 73.802 187.708, 73.755 187.941, 75.128 187.968 C 76.972 188.004, 79.613 185.279, 78.658 184.325 C 78.313 183.980, 78.812 183.062, 79.766 182.286 C 80.856 181.398, 81.090 180.699, 80.395 180.402 C 79.788 180.143, 79.513 178.767, 79.785 177.345 L 80.279 174.759 81.591 177.879 C 82.313 179.596, 83.600 181, 84.452 181 C 85.333 181, 86 181.861, 86 183 C 86 184.100, 85.550 185, 85 185 C 84.450 185, 84 184.325, 84 183.500 C 84 182.675, 83.743 182, 83.429 182 C 82.113 182, 79.639 185.365, 79.493 187.353 C 79.406 188.534, 78.577 189.647, 77.651 189.827 C 75.522 190.239, 69.980 187.841, 70.631 186.788 C 70.899 186.355, 70.304 186.015, 69.309 186.033 C 67.714 186.063, 67.766 186.289, 69.750 187.944 C 70.987 188.976, 72 190.232, 72 190.734 C 72 191.965, 82.313 191.762, 83.205 190.513 C 83.623 189.929, 84.760 190.439, 85.994 191.763 C 87.140 192.994, 87.780 194, 87.417 194 C 87.053 194, 87.373 194.748, 88.128 195.661 C 89.360 197.153, 89.219 197.269, 86.750 196.800 C 84.796 196.428, 84 196.688, 84 197.698 C 84 198.527, 84.486 198.817, 85.170 198.395 C 85.942 197.918, 86.135 198.205, 85.739 199.237 C 85.373 200.191, 85.796 201.043, 86.819 201.417 C 92.629 203.542, 93.732 205.821, 89.676 207.320 C 87.828 208.003, 87.658 211.361, 89.500 210.803 C 90.050 210.636, 90.393 210.179, 90.262 209.786 C 90.131 209.393, 90.694 209.329, 91.512 209.643 C 92.330 209.957, 93 210.616, 93 211.107 C 93 211.598, 93.702 212, 94.559 212 C 95.477 212, 95.858 212.514, 95.485 213.250 C 95.137 213.938, 95.548 213.643, 96.398 212.597 C 97.878 210.775, 97.975 210.771, 98.641 212.507 C 99.280 214.171, 99.403 214.143, 100.136 212.160 C 101.210 209.257, 105.467 209.107, 104.711 211.999 C 103.976 214.808, 106.006 215.692, 107.947 213.409 C 109.793 211.238, 111.939 210.514, 112.125 212 C 112.194 212.550, 112.306 213.450, 112.375 214 C 112.444 214.550, 112.838 215, 113.250 215 C 113.662 215, 114.675 215, 115.500 215 C 117.695 215, 117.334 211.900, 115.069 211.308 C 111.932 210.487, 113.761 208.400, 117.617 208.400 C 120.560 208.400, 120.900 208.600, 119.587 209.560 C 117.332 211.209, 117.618 212, 120.469 212 C 122.252 212, 122.777 211.584, 122.362 210.500 C 121.749 208.903, 122.803 208.553, 124.573 209.765 C 126.233 210.902, 127.017 213.828, 125.772 214.243 C 125.159 214.447, 124.588 215.558, 124.503 216.710 C 124.376 218.438, 124.713 218.668, 126.424 218.020 C 127.566 217.587, 128.375 216.535, 128.221 215.681 C 128.014 214.528, 128.656 214.211, 130.721 214.444 C 132.802 214.679, 133.420 215.227, 133.183 216.629 C 132.913 218.219, 133.109 218.163, 134.489 216.250 C 136.417 213.580, 138 213.332, 138 215.700 C 138 216.956, 138.293 217.107, 139.122 216.278 C 139.739 215.661, 140.909 215.412, 141.723 215.724 C 142.536 216.036, 143.494 215.822, 143.851 215.249 C 144.711 213.868, 148.034 213.492, 150.395 214.509 C 151.746 215.091, 152.675 214.797, 153.634 213.485 C 154.374 212.474, 155.308 211.975, 155.711 212.377 C 156.113 212.780, 155.793 213.510, 155 214 C 154.207 214.490, 153.812 215.145, 154.122 215.456 C 155.272 216.606, 160.197 210.957, 159.540 209.243 C 159.185 208.318, 159.214 207.881, 159.605 208.272 C 159.996 208.663, 160.867 208.525, 161.541 207.966 C 162.411 207.244, 162.950 207.428, 163.401 208.602 C 163.785 209.602, 163.338 210.771, 162.267 211.564 C 159.206 213.832, 162.958 212.660, 169.853 209.194 C 173.347 207.437, 177.086 206, 178.162 206 C 179.238 206, 179.840 205.550, 179.500 205 C 179.160 204.450, 179.407 204, 180.048 204 C 180.689 204, 180.955 203.325, 180.638 202.500 C 180.291 201.595, 180.633 201, 181.500 201 C 182.367 201, 182.709 200.405, 182.362 199.500 C 181.997 198.550, 182.375 198, 183.393 198 C 184.277 198, 185 198.436, 185 198.969 C 185 200.437, 187.387 199.211, 188.737 197.049 C 189.710 195.491, 189.599 194.726, 188.133 192.916 C 186.402 190.779, 186.330 186, 188.029 186 C 188.466 186, 189.129 184.194, 189.502 181.987 C 189.899 179.638, 190.940 177.567, 192.012 176.994 C 193.020 176.454, 194.595 175.262, 195.513 174.344 C 196.884 172.973, 197.331 172.918, 198.022 174.036 C 198.641 175.037, 199.041 174.684, 199.540 172.698 C 199.912 171.214, 200.506 169.943, 200.858 169.872 C 201.211 169.802, 202.531 169.638, 203.791 169.507 C 205.052 169.376, 206.671 168.465, 207.390 167.482 C 208.209 166.362, 209.184 165.996, 210.003 166.502 C 210.829 167.012, 211.066 166.916, 210.648 166.240 C 210.285 165.652, 210.551 164.983, 211.240 164.753 C 211.928 164.524, 212.526 163.698, 212.568 162.918 C 212.706 160.369, 215.172 155, 216.205 155 C 216.760 155, 216.960 154.338, 216.649 153.529 C 216.339 152.720, 216.763 151.380, 217.591 150.551 C 218.420 149.723, 219.017 148.472, 218.919 147.772 C 218.676 146.049, 221.245 140, 222.219 140 C 222.649 140, 223 138.859, 223 137.465 C 223 135.240, 222.756 135.060, 221 136 C 219.716 136.687, 218.374 136.735, 217.250 136.134 C 216.287 135.619, 215.056 135.265, 214.513 135.349 C 213.971 135.432, 212.934 134.262, 212.209 132.750 C 211.484 131.238, 210.214 130, 209.386 130 C 208.559 130, 208.146 129.573, 208.468 129.051 C 208.791 128.530, 208.541 126.063, 207.913 123.570 C 207.285 121.077, 207.119 118.241, 207.544 117.268 C 207.968 116.296, 208.225 114.938, 208.114 114.250 C 208.003 113.562, 208.368 113, 208.925 113 C 209.482 113, 209.671 112.307, 209.346 111.459 C 208.981 110.508, 209.247 110.030, 210.043 110.209 C 210.888 110.400, 211.419 109.182, 211.589 106.660 C 211.731 104.548, 212.079 102.588, 212.363 102.304 C 212.647 102.019, 211.996 100.838, 210.915 99.679 C 209.835 98.519, 209.182 96.969, 209.464 96.233 C 209.758 95.466, 209.527 95.174, 208.921 95.549 C 208.341 95.908, 207.620 95.261, 207.319 94.112 C 207.018 92.963, 206.405 92.250, 205.955 92.528 C 205.505 92.806, 204.544 92.238, 203.818 91.267 C 201.980 88.804, 198.850 88.484, 197.302 90.602 C 196.586 91.581, 196 92.010, 196 91.555 C 196 91.100, 194.821 91.907, 193.379 93.348 C 191.938 94.789, 190.343 95.712, 189.835 95.398 C 189.328 95.085, 188.270 95.361, 187.484 96.013 C 186.361 96.945, 185.697 96.840, 184.379 95.522 C 183.456 94.599, 181.869 94.063, 180.851 94.329 C 179.833 94.595, 179 94.425, 179 93.952 C 179 92.922, 174.210 88.001, 173.205 87.998 C 172.817 87.996, 172.452 86.646, 172.394 84.998 C 172.335 83.349, 172.681 82, 173.163 82 C 173.644 82, 173.759 80.888, 173.418 79.530 C 172.593 76.241, 174.903 73.807, 177.480 75.249 C 178.992 76.095, 179.209 75.986, 178.692 74.640 C 177.944 72.691, 179.040 72.508, 181.023 74.250 C 181.806 74.938, 181.636 74.525, 180.644 73.333 C 179.227 71.630, 179.072 70.735, 179.920 69.149 C 181.269 66.630, 181.297 65.699, 180 66.500 C 179.170 67.013, 178.861 65.430, 179.021 61.480 C 179.061 60.503, 176.501 58.209, 175.826 58.617 C 175.455 58.841, 173.038 57.901, 170.456 56.527 C 167.873 55.154, 165.287 54.322, 164.710 54.679 C 164.053 55.085, 163.907 54.686, 164.319 53.612 C 164.717 52.575, 164.578 52.143, 163.969 52.519 C 163.415 52.862, 161.507 52.664, 159.730 52.078 C 154.658 50.408, 150.002 50.141, 148.696 51.444 C 146.221 53.915, 143.269 53.886, 142.127 51.379 C 141.070 49.060, 139 48.089, 139 49.912 C 139 50.413, 138.237 50.711, 137.304 50.574 C 135.594 50.323, 134.719 49.169, 133.456 45.500 C 133.025 44.249, 132.592 43.968, 132.300 44.750 C 131.573 46.696, 129.709 46.219, 130.232 44.220 C 130.670 42.545, 128.970 40.053, 127.270 39.879 C 126.846 39.836, 126.628 39.349, 126.784 38.797 C 126.941 38.245, 126.161 37.007, 125.053 36.046 C 123.944 35.084, 123.366 33.933, 123.768 33.488 C 124.171 33.043, 123.825 33.086, 123 33.583 C 121.131 34.709, 116.960 34.874, 117.626 33.796 C 117.897 33.358, 117.165 33, 116 33 C 114.835 33, 114.133 33.406, 114.439 33.902 M 139.459 35.067 C 138.433 36.727, 139.354 36.957, 140.789 35.399 C 141.499 34.630, 141.638 34, 141.098 34 C 140.559 34, 139.821 34.480, 139.459 35.067 M 182 34.882 C 182 35.432, 182.450 36.160, 183 36.500 C 183.550 36.840, 184 36.668, 184 36.118 C 184 35.568, 183.550 34.840, 183 34.500 C 182.450 34.160, 182 34.332, 182 34.882 M 76 39.031 C 76 39.564, 76.675 40, 77.500 40 C 78.325 40, 79 39.823, 79 39.607 C 79 39.391, 78.325 38.955, 77.500 38.638 C 76.675 38.322, 76 38.499, 76 39.031 M 191.719 41.311 C 192.237 44.020, 198 46.866, 198 44.413 C 198 43.636, 197.152 43, 196.117 43 C 195.074 43, 194 42.107, 193.710 41 C 192.979 38.205, 191.179 38.486, 191.719 41.311 M 136 42 C 134.718 42.828, 134.754 42.972, 136.250 42.985 C 137.213 42.993, 138 42.550, 138 42 C 138 40.780, 137.887 40.780, 136 42 M 65.543 42.931 C 65.226 43.443, 65.425 44.144, 65.984 44.490 C 66.543 44.835, 67 44.416, 67 43.559 C 67 41.802, 66.400 41.544, 65.543 42.931 M 73.079 43.583 C 73.127 44.748, 73.364 44.985, 73.683 44.188 C 73.972 43.466, 73.936 42.603, 73.604 42.271 C 73.272 41.939, 73.036 42.529, 73.079 43.583 M 126 42.393 C 126 42.609, 126.698 43.054, 127.552 43.382 C 128.442 43.723, 128.843 43.555, 128.493 42.989 C 127.906 42.038, 126 41.583, 126 42.393 M 77.872 44.750 C 76.629 46.336, 76.664 46.371, 78.250 45.128 C 79.916 43.821, 80.445 43, 79.622 43 C 79.415 43, 78.627 43.788, 77.872 44.750 M 160.408 45.627 C 161.736 48.495, 162.571 48.662, 162.571 46.061 C 162.571 44.994, 161.839 43.930, 160.943 43.695 C 159.567 43.335, 159.484 43.634, 160.408 45.627 M 149 45 C 150.375 45.440, 150.911 45.845, 150.191 45.900 C 149.471 45.955, 149.190 46.498, 149.566 47.107 C 150.046 47.884, 150.491 47.824, 151.059 46.905 C 152.190 45.074, 151.268 43.982, 148.691 44.100 C 146.651 44.192, 146.673 44.255, 149 45 M 140 46.500 C 140 47.325, 140.436 48, 140.969 48 C 141.501 48, 141.678 47.325, 141.362 46.500 C 141.045 45.675, 140.609 45, 140.393 45 C 140.177 45, 140 45.675, 140 46.500 M 68.015 50.595 C 68.045 52.329, 69.777 54.241, 70.961 53.846 C 71.731 53.590, 71.418 52.784, 70.077 51.569 C 68.935 50.536, 68.007 50.097, 68.015 50.595 M 62 52.469 C 62 53.363, 62.586 53.712, 63.500 53.362 C 64.325 53.045, 65 52.384, 65 51.893 C 65 51.402, 64.325 51, 63.500 51 C 62.675 51, 62 51.661, 62 52.469 M 204 56 C 204 56.550, 204.627 57, 205.393 57 C 206.159 57, 207.045 57.675, 207.362 58.500 C 207.678 59.325, 208.412 60, 208.992 60 C 209.575 60, 209.315 58.884, 208.408 57.500 C 206.785 55.023, 204 54.075, 204 56 M 56.500 60 C 56.160 60.550, 56.246 61.007, 56.691 61.015 C 57.136 61.024, 56.999 61.361, 56.386 61.765 C 55.762 62.178, 55.578 63.353, 55.967 64.443 C 56.579 66.156, 56.858 65.991, 58.331 63.039 C 59.249 61.199, 60 59.537, 60 59.346 C 60 58.538, 57.065 59.086, 56.500 60 M 64.206 62.750 C 64.425 64.054, 63.926 64.420, 62.250 64.187 C 59.556 63.813, 59.212 65.561, 61.843 66.249 C 62.949 66.538, 64.150 65.990, 64.843 64.879 C 66.281 62.578, 66.327 61, 64.956 61 C 64.382 61, 64.045 61.788, 64.206 62.750 M 209 62 C 209 62.550, 209.450 63, 210 63 C 210.550 63, 211 62.550, 211 62 C 211 61.450, 210.550 61, 210 61 C 209.450 61, 209 61.450, 209 62 M 211.276 65.988 C 211.193 67.095, 211.732 68, 212.474 68 C 213.216 68, 213.711 67.237, 213.574 66.304 C 213.215 63.855, 211.455 63.613, 211.276 65.988 M 189.079 67.583 C 189.127 68.748, 189.364 68.985, 189.683 68.188 C 189.972 67.466, 189.936 66.603, 189.604 66.271 C 189.272 65.939, 189.036 66.529, 189.079 67.583 M 59.465 68.776 C 59.064 69.724, 58.601 71.514, 58.436 72.754 C 58.168 74.765, 58.298 74.845, 59.648 73.494 C 60.480 72.662, 61.500 72.191, 61.914 72.447 C 63.173 73.225, 62.753 69.610, 61.430 68.288 C 60.449 67.306, 60.044 67.407, 59.465 68.776 M 43 72 C 43 72.550, 43.477 73, 44.059 73 C 44.641 73, 44.840 72.550, 44.500 72 C 44.160 71.450, 43.684 71, 43.441 71 C 43.198 71, 43 71.450, 43 72 M 54.500 75 C 54.160 75.550, 54.359 76, 54.941 76 C 55.523 76, 56 75.550, 56 75 C 56 74.450, 55.802 74, 55.559 74 C 55.316 74, 54.840 74.450, 54.500 75 M 44.667 76.667 C 43.644 77.689, 43.875 81, 44.969 81 C 45.501 81, 45.676 80.320, 45.357 79.489 C 44.962 78.459, 45.238 78.154, 46.222 78.532 C 47.097 78.867, 47.667 78.478, 47.667 77.543 C 47.667 75.975, 45.880 75.453, 44.667 76.667 M 53 78.034 C 53 78.683, 53.646 78.966, 54.435 78.663 C 55.225 78.360, 56.091 78.548, 56.360 79.081 C 56.630 79.614, 56.734 79.476, 56.592 78.775 C 56.262 77.140, 53 76.467, 53 78.034 M 177.459 78.067 C 177.096 78.653, 177.014 79.348, 177.276 79.610 C 177.538 79.872, 178.019 79.392, 178.345 78.543 C 179.021 76.781, 178.445 76.471, 177.459 78.067 M 43.882 82.750 C 43.816 83.162, 43.833 83.888, 43.919 84.362 C 44.005 84.837, 43.271 85.835, 42.287 86.581 C 40.571 87.882, 40.572 87.938, 42.292 87.968 C 44.796 88.013, 46.786 85.897, 46.232 83.780 C 45.773 82.023, 44.111 81.295, 43.882 82.750 M 54.500 83 C 54.160 83.550, 54.610 84, 55.500 84 C 56.390 84, 56.840 83.550, 56.500 83 C 56.160 82.450, 55.710 82, 55.500 82 C 55.290 82, 54.840 82.450, 54.500 83 M 54.149 86.667 C 53.406 87.472, 53.005 88.338, 53.257 88.590 C 53.509 88.842, 54.293 88.352, 55 87.500 C 56.669 85.489, 55.916 84.751, 54.149 86.667 M 195 88 C 195 88.550, 195.477 89, 196.059 89 C 196.641 89, 196.840 88.550, 196.500 88 C 196.160 87.450, 195.684 87, 195.441 87 C 195.198 87, 195 87.450, 195 88 M 184.333 89.456 C 184.333 90.257, 184.708 90.680, 185.167 90.397 C 185.625 90.114, 186 89.459, 186 88.941 C 186 88.423, 185.625 88, 185.167 88 C 184.708 88, 184.333 88.655, 184.333 89.456 M 34.399 90.250 C 34.003 90.938, 34.048 91.166, 34.498 90.759 C 34.948 90.351, 36.032 90.576, 36.908 91.259 C 38.317 92.357, 38.342 92.298, 37.128 90.750 C 35.492 88.664, 35.328 88.634, 34.399 90.250 M 192.500 90 C 192.840 90.550, 193.316 91, 193.559 91 C 193.802 91, 194 90.550, 194 90 C 194 89.450, 193.523 89, 192.941 89 C 192.359 89, 192.160 89.450, 192.500 90 M 39 94.800 C 39 95.790, 38.441 97.159, 37.758 97.842 C 36.770 98.830, 36.811 99.265, 37.961 99.976 C 39.573 100.972, 41.317 100.322, 40.515 99.024 C 40.230 98.563, 40.969 98.441, 42.157 98.751 L 44.316 99.316 42.121 97.121 C 40.915 95.915, 40.195 94.493, 40.523 93.964 C 40.850 93.434, 40.641 93, 40.059 93 C 39.477 93, 39 93.810, 39 94.800 M 50.007 103.960 C 47.789 105.664, 47.706 105.950, 49.257 106.545 C 50.215 106.913, 51 108.039, 51 109.048 C 51 110.057, 51.403 111.131, 51.895 111.435 C 53.194 112.238, 53.972 109.567, 52.923 107.909 C 51.718 106.006, 51.762 103.735, 52.989 104.493 C 53.555 104.843, 53.723 104.442, 53.382 103.552 C 52.665 101.685, 53.024 101.642, 50.007 103.960 M 38.114 105.929 C 37.255 106.461, 37.152 106.976, 37.824 107.391 C 38.395 107.744, 39.163 107.545, 39.531 106.950 C 40.449 105.464, 39.719 104.938, 38.114 105.929 M 46 108.531 C 46 110.149, 47.563 110.517, 48.435 109.105 C 48.740 108.612, 48.316 107.952, 47.494 107.636 C 46.587 107.288, 46 107.639, 46 108.531 M 43 111 C 43 111.550, 43.450 112, 44 112 C 44.550 112, 45 111.550, 45 111 C 45 110.450, 44.550 110, 44 110 C 43.450 110, 43 110.450, 43 111 M 56.554 111.912 C 56.086 112.670, 56.423 113.852, 57.382 114.810 C 59.097 116.526, 59.347 115.746, 58.102 112.566 C 57.538 111.125, 57.144 110.958, 56.554 111.912 M 36 115.857 C 36 117.116, 38.834 120, 40.071 120 C 40.582 120, 41 119.550, 41 119 C 41 118.450, 40.582 118, 40.071 118 C 39.561 118, 38.436 117.293, 37.571 116.429 C 36.707 115.564, 36 115.307, 36 115.857 M 48.559 116.333 C 46.817 117.607, 46.813 117.785, 48.483 120.333 C 49.444 121.800, 50.614 123, 51.084 123 C 52.141 123, 51.014 119.746, 49.637 118.826 C 48.986 118.391, 49.092 117.594, 49.937 116.576 C 51.536 114.649, 50.993 114.553, 48.559 116.333 M 215.250 119.720 C 214.563 119.966, 214 120.901, 214 121.798 C 214 123.282, 214.152 123.277, 215.690 121.738 C 217.498 119.930, 217.293 118.991, 215.250 119.720 M 36 122.059 C 36 122.641, 36.450 122.840, 37 122.500 C 37.550 122.160, 38 121.684, 38 121.441 C 38 121.198, 37.550 121, 37 121 C 36.450 121, 36 121.477, 36 122.059 M 57.389 122.570 C 57.725 123.447, 58 124.378, 58 124.641 C 58 124.903, 58.450 124.840, 59 124.500 C 60.484 123.583, 60.213 122.296, 58.389 121.596 C 57.209 121.143, 56.941 121.404, 57.389 122.570 M 46.789 126.314 C 47.001 128.137, 47.982 130.132, 48.967 130.748 C 50.598 131.766, 50.692 131.569, 50.012 128.551 C 48.627 122.410, 46.130 120.678, 46.789 126.314 M 37.529 128.132 C 39.535 134.565, 40.085 135.479, 41.042 133.966 C 42.337 131.918, 42.222 131, 40.671 131 C 39.939 131, 39.377 130.033, 39.421 128.851 C 39.464 127.669, 38.890 126.491, 38.145 126.233 C 37.132 125.882, 36.977 126.361, 37.529 128.132 M 57.878 126.904 C 58.681 127.412, 58.930 128.305, 58.474 129.043 C 57.964 129.867, 58.094 130.060, 58.845 129.595 C 60.626 128.495, 60.211 125.998, 58.250 126.015 C 56.866 126.027, 56.788 126.213, 57.878 126.904 M 67 129.878 C 67 131.465, 69.763 133.193, 70.470 132.049 C 70.826 131.472, 70.390 131, 69.500 131 C 68.610 131, 68.160 130.550, 68.500 130 C 68.840 129.450, 68.641 129, 68.059 129 C 67.477 129, 67 129.395, 67 129.878 M 213 129.878 C 213 130.360, 213.787 131.373, 214.750 132.128 C 216.298 133.342, 216.357 133.317, 215.259 131.908 C 214.576 131.032, 214.313 130.020, 214.675 129.658 C 215.037 129.296, 214.808 129, 214.167 129 C 213.525 129, 213 129.395, 213 129.878 M 60 134.559 C 60 135.416, 60.457 135.835, 61.016 135.490 C 61.575 135.144, 61.774 134.443, 61.457 133.931 C 60.600 132.544, 60 132.802, 60 134.559 M 41.710 140 C 41.423 141.100, 41.543 142, 41.977 142 C 42.411 142, 43.002 141.100, 43.290 140 C 43.577 138.900, 43.457 138, 43.023 138 C 42.589 138, 41.998 138.900, 41.710 140 M 71.573 139.670 C 71.221 140.589, 71.362 141.606, 71.887 141.930 C 72.412 142.255, 73.151 143.753, 73.529 145.260 C 73.907 146.767, 74.670 148, 75.225 148 C 75.779 148, 76.011 149.160, 75.740 150.578 C 75.362 152.555, 75.773 153.395, 77.503 154.183 C 78.957 154.846, 79.594 155.835, 79.298 156.968 C 78.985 158.164, 79.558 158.913, 81.093 159.314 C 85.326 160.421, 86.630 157.570, 82.593 156.035 C 80.990 155.426, 79.950 154.013, 79.481 151.810 C 79.094 149.989, 78.209 147.825, 77.515 147 C 76.821 146.175, 75.711 143.813, 75.049 141.750 C 73.751 137.708, 72.592 137.015, 71.573 139.670 M 46.229 140.937 C 46.493 142.319, 52.737 144.597, 53.679 143.654 C 53.932 143.402, 53.592 142.319, 52.923 141.248 C 51.460 138.906, 45.791 138.642, 46.229 140.937 M 61.667 139.667 C 60.200 141.133, 61.116 142.994, 63.250 142.884 C 65.054 142.791, 65.139 142.675, 63.677 142.297 C 62.604 142.019, 62.076 141.243, 62.395 140.413 C 62.982 138.882, 62.720 138.613, 61.667 139.667 M 31 145.059 C 31 145.641, 31.450 145.840, 32 145.500 C 32.550 145.160, 33 144.684, 33 144.441 C 33 144.198, 32.550 144, 32 144 C 31.450 144, 31 144.477, 31 145.059 M 63 145.441 C 63 146.234, 63.423 147.143, 63.939 147.463 C 64.456 147.782, 64.810 147.134, 64.727 146.022 C 64.555 143.738, 63 143.215, 63 145.441 M 66 148.500 C 66 149.942, 66.576 151, 67.361 151 C 68.274 151, 68.565 150.176, 68.245 148.500 C 67.982 147.125, 67.369 146, 66.883 146 C 66.398 146, 66 147.125, 66 148.500 M 53.500 150 C 53.160 150.550, 53.584 151, 54.441 151 C 55.298 151, 56 150.550, 56 150 C 56 149.450, 55.577 149, 55.059 149 C 54.541 149, 53.840 149.450, 53.500 150 M 65.849 155.328 C 67.443 158.651, 67.560 158.706, 69.250 156.927 C 71.392 154.671, 71.502 153.593, 69.512 154.357 C 68.662 154.683, 68.126 154.418, 68.262 153.738 C 68.393 153.083, 67.532 152.399, 66.349 152.217 C 64.235 151.893, 64.226 151.948, 65.849 155.328 M 101.015 156.750 C 101.040 157.941, 102.966 160.610, 103 159.500 C 103.017 158.950, 103.449 159.162, 103.961 159.971 C 104.473 160.780, 105.130 161.203, 105.423 160.911 C 106.128 160.205, 103.149 156, 101.943 156 C 101.424 156, 101.007 156.338, 101.015 156.750 M 44.667 157.667 C 44.300 158.033, 44 158.798, 44 159.367 C 44 159.993, 44.466 159.934, 45.183 159.217 C 45.834 158.566, 46.134 157.801, 45.850 157.517 C 45.566 157.232, 45.033 157.300, 44.667 157.667 M 71.510 160.016 C 71.856 160.575, 72.557 160.774, 73.069 160.457 C 74.456 159.600, 74.198 159, 72.441 159 C 71.584 159, 71.165 159.457, 71.510 160.016 M 69.500 162 C 69.840 162.550, 70.316 163, 70.559 163 C 70.802 163, 71 162.550, 71 162 C 71 161.450, 70.523 161, 69.941 161 C 69.359 161, 69.160 161.450, 69.500 162 M 94 162.441 C 94 163.298, 94.450 164, 95 164 C 95.550 164, 96 163.577, 96 163.059 C 96 162.541, 95.550 161.840, 95 161.500 C 94.450 161.160, 94 161.584, 94 162.441 M 82 163 C 82 163.550, 82.623 164, 83.383 164 C 84.805 164, 85.962 166.917, 85.986 170.562 C 85.998 172.299, 90.725 177, 92.460 177 C 94.136 177, 92.610 173.779, 90.472 172.805 C 88.937 172.106, 88.376 171.385, 89.046 170.972 C 89.797 170.507, 89.627 169.770, 88.510 168.653 C 87.609 167.752, 87.130 166.598, 87.445 166.088 C 88.174 164.910, 85.315 162, 83.429 162 C 82.643 162, 82 162.450, 82 163 M 103.750 163.662 C 104.438 163.940, 105 164.831, 105 165.642 C 105 166.454, 105.450 166.840, 106 166.500 C 107.894 165.329, 107.043 162.998, 104.750 163.079 C 103.513 163.122, 103.063 163.385, 103.750 163.662 M 52.543 166.931 C 52.226 167.443, 52.425 168.144, 52.984 168.490 C 53.543 168.835, 54 168.416, 54 167.559 C 54 165.802, 53.400 165.544, 52.543 166.931 M 97 169 C 97 169.550, 97.450 170, 98 170 C 98.550 170, 99 169.550, 99 169 C 99 168.450, 98.550 168, 98 168 C 97.450 168, 97 168.450, 97 169 M 107 169.419 C 107 170.335, 107.843 171.988, 108.873 173.094 C 110.518 174.860, 110.821 174.909, 111.362 173.500 C 111.719 172.569, 111.562 172.152, 110.989 172.507 C 110.445 172.843, 110 172.472, 110 171.681 C 110 170.891, 109.325 169.685, 108.500 169 C 107.269 167.978, 107 168.053, 107 169.419 M 50.500 170 C 50.160 170.550, 50.359 171, 50.941 171 C 51.523 171, 52 170.550, 52 170 C 52 169.450, 51.802 169, 51.559 169 C 51.316 169, 50.840 169.450, 50.500 170 M 72.409 172.376 C 71.574 174.553, 72.158 175.138, 74.021 173.987 C 75.164 173.280, 75.220 172.820, 74.274 171.874 C 73.329 170.929, 72.922 171.039, 72.409 172.376 M 77.569 172.112 C 77.947 172.723, 77.696 173.570, 77.012 173.993 C 76.086 174.565, 76.046 175.241, 76.853 176.631 C 77.451 177.659, 77.983 178.275, 78.037 178 C 78.829 173.953, 78.785 171, 77.933 171 C 77.355 171, 77.191 171.500, 77.569 172.112 M 64.597 174.250 C 66.130 176.931, 67.263 177.955, 68.116 177.428 C 69.419 176.623, 67.202 173, 65.406 173 C 64.472 173, 64.159 173.484, 64.597 174.250 M 53.768 176.168 C 54.350 176.750, 55.415 177.028, 56.137 176.788 C 56.886 176.538, 56.432 176.085, 55.080 175.731 C 53.417 175.296, 53.026 175.426, 53.768 176.168 M 110.781 176.552 C 110.031 177.303, 112.075 181, 113.241 181 C 114.375 181, 114.160 179.601, 112.723 177.635 C 112.020 176.674, 111.146 176.187, 110.781 176.552 M 122 181 C 122 181.550, 122.477 182, 123.059 182 C 123.641 182, 123.840 181.550, 123.500 181 C 123.160 180.450, 122.684 180, 122.441 180 C 122.198 180, 122 180.450, 122 181 M 95.250 181.720 C 93.749 182.256, 93.566 185, 95.031 185 C 96.063 185, 97.578 182.198, 96.874 181.594 C 96.668 181.418, 95.938 181.475, 95.250 181.720 M 112 183 C 112 183.550, 112.477 184, 113.059 184 C 113.641 184, 113.840 183.550, 113.500 183 C 113.160 182.450, 112.684 182, 112.441 182 C 112.198 182, 112 182.450, 112 183 M 104.500 184 C 104.160 184.550, 104.359 185, 104.941 185 C 105.523 185, 106 184.550, 106 184 C 106 183.450, 105.802 183, 105.559 183 C 105.316 183, 104.840 183.450, 104.500 184 M 61 187 C 61 187.550, 61.450 188, 62 188 C 62.550 188, 63 187.550, 63 187 C 63 186.450, 62.550 186, 62 186 C 61.450 186, 61 186.450, 61 187 M 88.029 187.466 C 86.937 188.781, 87.129 188.967, 89.389 188.780 C 90.836 188.660, 91.875 188.126, 91.698 187.594 C 91.143 185.930, 89.355 185.868, 88.029 187.466 M 192.636 188.506 C 192.321 189.328, 192.472 190, 192.972 190 C 194.328 190, 195.170 188.223, 194.121 187.575 C 193.620 187.265, 192.952 187.684, 192.636 188.506 M 65.079 190.167 C 65.036 191.083, 66.237 192.734, 67.748 193.835 C 69.260 194.936, 70.135 196.198, 69.694 196.640 C 69.252 197.081, 68.484 196.784, 67.987 195.979 C 67.267 194.815, 66.830 194.770, 65.842 195.758 C 64.853 196.747, 64.915 197, 66.147 197 C 67.998 197, 71.402 199.861, 72.237 202.118 C 72.566 203.007, 73.984 203.955, 75.388 204.223 C 76.791 204.492, 77.757 204.416, 77.534 204.056 C 77.312 203.695, 78.010 202.850, 79.087 202.178 C 80.693 201.175, 81.150 201.228, 81.627 202.472 C 81.948 203.306, 82.632 203.727, 83.149 203.408 C 83.665 203.089, 84.850 203.429, 85.782 204.164 C 87.364 205.411, 87.370 205.334, 85.874 203 C 84.992 201.625, 83.310 200.356, 82.135 200.180 C 80.961 200.005, 79.968 199.105, 79.930 198.180 C 79.871 196.773, 79.738 196.808, 79.116 198.395 C 78.360 200.321, 73 201.667, 73 199.932 C 73 199.419, 73.468 199, 74.040 199 C 74.613 199, 73.938 197.767, 72.540 196.260 C 71.143 194.753, 70 192.953, 70 192.260 C 70 191.567, 69.138 191, 68.083 191 C 67.029 191, 65.940 190.438, 65.662 189.750 C 65.348 188.970, 65.128 189.127, 65.079 190.167 M 117.923 189.250 C 117.211 191.578, 117.441 193, 118.529 193 C 119.273 193, 120.160 192.550, 120.500 192 C 120.840 191.450, 120.390 191, 119.500 191 C 118.610 191, 118.160 190.550, 118.500 190 C 118.840 189.450, 118.866 189, 118.559 189 C 118.252 189, 117.966 189.113, 117.923 189.250 M 92 191 C 92 191.550, 92.450 192, 93 192 C 93.550 192, 94 191.550, 94 191 C 94 190.450, 93.550 190, 93 190 C 92.450 190, 92 190.450, 92 191 M 99 191.500 C 99 192.325, 99.177 193, 99.393 193 C 99.609 193, 100.045 192.325, 100.362 191.500 C 100.678 190.675, 100.501 190, 99.969 190 C 99.436 190, 99 190.675, 99 191.500 M 76.250 192.662 C 74.492 193.372, 74.688 196, 76.500 196 C 77.325 196, 78.036 195.213, 78.079 194.250 C 78.126 193.205, 78.361 193.003, 78.662 193.750 C 78.940 194.438, 79.890 195, 80.774 195 C 82.100 195, 82.042 194.742, 80.441 193.532 C 78.345 191.946, 78.133 191.902, 76.250 192.662 M 94.500 194.999 C 93.988 196.614, 93.499 196.802, 91.955 195.976 C 90.414 195.151, 90.158 195.248, 90.629 196.477 C 91.004 197.452, 90.635 198, 89.607 198 C 88.723 198, 88 198.450, 88 199 C 88 200.250, 89.296 200.293, 90.550 199.085 C 91.073 198.581, 92.625 198.019, 94 197.835 C 95.783 197.596, 96.533 196.854, 96.613 195.250 C 96.754 192.462, 95.358 192.296, 94.500 194.999 M 125 195.409 C 125 195.599, 125.675 196.315, 126.500 197 C 127.365 197.718, 128 197.815, 128 197.229 C 128 196.671, 127.325 195.955, 126.500 195.638 C 125.675 195.322, 125 195.219, 125 195.409 M 104.349 197.689 C 104.730 198.342, 104.284 199.301, 103.358 199.819 C 101.865 200.655, 101.931 200.843, 103.938 201.480 C 107.291 202.544, 108.445 200.702, 105.852 198.426 C 104.644 197.367, 103.968 197.035, 104.349 197.689 M 136.813 197.683 C 137.534 197.972, 138.397 197.936, 138.729 197.604 C 139.061 197.272, 138.471 197.036, 137.417 197.079 C 136.252 197.127, 136.015 197.364, 136.813 197.683 M 169 197.393 C 169 198.342, 171.993 198.820, 172.527 197.956 C 172.852 197.430, 172.191 197, 171.059 197 C 169.927 197, 169 197.177, 169 197.393 M 59.733 199.124 C 60.412 199.808, 61.219 200.115, 61.526 199.807 C 61.834 199.499, 61.279 198.940, 60.293 198.564 C 58.868 198.022, 58.753 198.136, 59.733 199.124 M 176.667 200.667 C 176.300 201.033, 176 201.798, 176 202.367 C 176 202.993, 176.466 202.934, 177.183 202.217 C 177.834 201.566, 178.134 200.801, 177.850 200.517 C 177.566 200.232, 177.033 200.300, 176.667 200.667 M 75.500 202 C 75.840 202.550, 76.316 203, 76.559 203 C 76.802 203, 77 202.550, 77 202 C 77 201.450, 76.523 201, 75.941 201 C 75.359 201, 75.160 201.450, 75.500 202 M 91 202 C 90.139 202.556, 89.998 202.976, 90.668 202.985 C 91.311 202.993, 92.548 203.273, 93.418 203.607 C 94.456 204.005, 95 203.662, 95 202.607 C 95 200.805, 93.258 200.541, 91 202 M 96.638 202.500 C 96.955 203.325, 97.391 204, 97.607 204 C 97.823 204, 98 203.325, 98 202.500 C 98 201.675, 97.564 201, 97.031 201 C 96.499 201, 96.322 201.675, 96.638 202.500 M 98.200 204.200 C 96.499 205.901, 96.713 206.997, 98.750 207.015 C 100.113 207.027, 100.200 207.221, 99.143 207.890 C 98.226 208.471, 98.136 208.966, 98.864 209.416 C 100.235 210.264, 101.588 205.188, 100.327 203.927 C 99.758 203.358, 98.937 203.463, 98.200 204.200 M 170.250 203.720 C 168.841 204.224, 168.517 208, 169.883 208 C 170.369 208, 171.026 207.007, 171.344 205.794 C 172.009 203.250, 171.939 203.117, 170.250 203.720 M 114 204.941 C 114 205.459, 114.450 206.160, 115 206.500 C 115.550 206.840, 116 206.416, 116 205.559 C 116 204.702, 115.550 204, 115 204 C 114.450 204, 114 204.423, 114 204.941 M 128 205.417 C 128 206.287, 128.713 207, 129.583 207 C 131.349 207, 131.042 204.847, 129.188 204.229 C 128.534 204.011, 128 204.546, 128 205.417 M 83.638 206.500 C 84.276 208.162, 82.478 208.583, 81.500 207 C 81.160 206.450, 80.159 206, 79.274 206 C 77.482 206, 78.492 207.474, 80.333 207.545 C 80.975 207.570, 81.425 208.020, 81.333 208.545 C 81.242 209.070, 82.254 209.500, 83.583 209.500 C 84.912 209.500, 86 209.199, 86 208.832 C 86 207.342, 84.732 205, 83.924 205 C 83.451 205, 83.322 205.675, 83.638 206.500 M 133.745 207.554 C 133.501 208.828, 133.572 210.288, 133.901 210.798 C 134.973 212.458, 139.297 211.429, 140.074 209.329 C 140.714 207.598, 140.478 207.377, 138.410 207.772 C 137.085 208.026, 136 208.631, 136 209.117 C 136 209.602, 135.438 209.985, 134.750 209.967 C 134.063 209.948, 134.501 209.098, 135.725 208.077 C 137.821 206.328, 137.841 206.192, 136.069 205.728 C 134.698 205.370, 134.068 205.865, 133.745 207.554 M 164.872 206.750 C 163.603 208.369, 163.650 208.390, 165.500 207.033 C 166.600 206.226, 167.688 205.439, 167.917 205.283 C 168.146 205.127, 167.863 205, 167.289 205 C 166.715 205, 165.627 205.787, 164.872 206.750 M 108 207.081 C 106.568 207.493, 106.212 207.843, 107.167 207.900 C 108.083 207.955, 108.983 208.436, 109.167 208.968 C 109.350 209.500, 110.039 209.601, 110.697 209.192 C 112.739 207.922, 110.678 206.309, 108 207.081 M 151.500 208 C 151.160 208.550, 151.359 209, 151.941 209 C 152.523 209, 153 208.550, 153 208 C 153 207.450, 152.802 207, 152.559 207 C 152.316 207, 151.840 207.450, 151.500 208 M 127 208.938 C 127 209.454, 127.869 209.810, 128.931 209.730 C 129.993 209.650, 130.641 209.228, 130.372 208.792 C 129.686 207.684, 127 207.799, 127 208.938 M 141.609 210.824 C 141.256 211.395, 141.455 212.163, 142.050 212.531 C 143.536 213.449, 144.062 212.719, 143.071 211.114 C 142.539 210.255, 142.024 210.152, 141.609 210.824 M 75.813 211.683 C 76.534 211.972, 77.397 211.936, 77.729 211.604 C 78.061 211.272, 77.471 211.036, 76.417 211.079 C 75.252 211.127, 75.015 211.364, 75.813 211.683 M 101.290 217 C 101.002 218.100, 100.369 219, 99.883 219 C 99.398 219, 99.036 219.787, 99.079 220.750 C 99.129 221.863, 99.347 222.030, 99.676 221.208 C 100.088 220.183, 100.500 220.170, 101.673 221.144 C 102.855 222.125, 103.335 222.083, 104.061 220.936 C 105.390 218.835, 105.197 217.710, 103.613 218.318 C 102.640 218.692, 102.377 218.276, 102.730 216.925 C 103.007 215.866, 102.914 215, 102.523 215 C 102.132 215, 101.577 215.900, 101.290 217 M 144.362 216.500 C 144.045 217.325, 142.908 218, 141.834 218 C 140.760 218, 140.131 218.403, 140.436 218.896 C 141.024 219.849, 147.686 218.693, 148.829 217.440 C 149.198 217.035, 148.521 216.945, 147.325 217.239 C 145.749 217.626, 145.296 217.391, 145.682 216.387 C 145.975 215.624, 145.927 215, 145.576 215 C 145.224 215, 144.678 215.675, 144.362 216.500 M 114 216.882 C 114 217.432, 114.450 218.160, 115 218.500 C 115.550 218.840, 116 218.668, 116 218.118 C 116 217.568, 115.550 216.840, 115 216.500 C 114.450 216.160, 114 216.332, 114 216.882 M 111 218 C 111 218.550, 111.450 219, 112 219 C 112.550 219, 113 218.550, 113 218 C 113 217.450, 112.550 217, 112 217 C 111.450 217, 111 217.450, 111 218 M 121.500 218 C 121.849 218.565, 121.030 219, 119.618 219 C 118.243 219, 116.840 219.450, 116.500 220 C 116.151 220.565, 116.970 221, 118.382 221 C 119.757 221, 121.160 221.450, 121.500 222 C 121.840 222.550, 122.879 222.986, 123.809 222.970 C 125.334 222.942, 125.324 222.837, 123.706 221.895 C 122.528 221.210, 122.122 220.191, 122.524 218.926 C 122.880 217.803, 122.665 217, 122.008 217 C 121.389 217, 121.160 217.450, 121.500 218 M 106.667 218.667 C 106.300 219.033, 106 219.798, 106 220.367 C 106 220.993, 106.466 220.934, 107.183 220.217 C 107.834 219.566, 108.134 218.801, 107.850 218.517 C 107.566 218.232, 107.033 218.300, 106.667 218.667 M 109.726 220.842 C 108.241 221.429, 108.443 221.729, 110.962 222.679 C 113.766 223.738, 113.902 223.685, 112.951 221.908 C 112.389 220.859, 111.833 220.032, 111.715 220.070 C 111.597 220.109, 110.702 220.456, 109.726 220.842 M 128.507 220.989 C 128.157 221.555, 128.558 221.723, 129.448 221.382 C 131.180 220.717, 131.497 220, 130.059 220 C 129.541 220, 128.843 220.445, 128.507 220.989 M 134.768 221.168 C 135.350 221.750, 136.415 222.028, 137.137 221.788 C 137.886 221.538, 137.432 221.085, 136.080 220.731 C 134.417 220.296, 134.026 220.426, 134.768 221.168 M 69.500 223 C 69.160 223.550, 69.359 224, 69.941 224 C 70.523 224, 71 223.550, 71 223 C 71 222.450, 70.802 222, 70.559 222 C 70.316 222, 69.840 222.450, 69.500 223 M 68.252 227.662 C 67.480 227.973, 67.235 229.087, 67.610 230.583 C 68.112 232.582, 67.842 233, 66.049 233 C 64.857 233, 64.158 232.554, 64.495 232.008 C 64.832 231.462, 64.648 230.225, 64.085 229.258 C 63.263 227.847, 63.031 227.796, 62.912 229 C 62.830 229.825, 62.836 231.063, 62.925 231.750 C 63.015 232.438, 62.618 233.056, 62.044 233.125 C 59.487 233.431, 59.127 233.539, 58.464 234.202 C 58.078 234.589, 58.474 235.617, 59.345 236.488 C 60.790 237.933, 61.085 237.915, 62.714 236.286 C 63.696 235.304, 65.625 234.500, 67 234.500 C 68.997 234.500, 69.452 234.047, 69.262 232.250 C 69.014 229.910, 70.534 229.101, 71.234 231.201 C 71.545 232.135, 71.798 232.135, 72.376 231.201 C 72.784 230.540, 72.656 230, 72.090 230 C 71.525 230, 71.322 229.325, 71.638 228.500 C 72.212 227.005, 70.766 226.647, 68.252 227.662 M 153.724 228.685 C 152.722 230.408, 154.495 232.728, 156.315 232.077 C 158.043 231.459, 158.036 231.342, 156.165 229.649 C 155.083 228.670, 153.985 228.237, 153.724 228.685 M 89.681 230.390 C 89.309 231.359, 89.881 231.737, 91.573 231.640 C 94.342 231.480, 94.749 230.501, 92.418 229.607 C 90.301 228.795, 90.292 228.797, 89.681 230.390 M 140.943 232.107 C 139.610 234.597, 141.009 236.594, 143.433 235.664 C 144.989 235.067, 145.687 232.892, 144.250 233.118 C 142.294 233.427, 141.863 232.870, 143 231.500 C 143.816 230.516, 143.871 230, 143.158 230 C 142.560 230, 141.563 230.948, 140.943 232.107 M 100 232.941 C 100 233.459, 100.450 234.160, 101 234.500 C 101.550 234.840, 102 234.416, 102 233.559 C 102 232.702, 101.550 232, 101 232 C 100.450 232, 100 232.423, 100 232.941 M 111.872 233.750 C 110.629 235.336, 110.664 235.371, 112.250 234.128 C 113.916 232.821, 114.445 232, 113.622 232 C 113.415 232, 112.627 232.787, 111.872 233.750 M 127 233.787 C 127 234.837, 127.798 235.634, 128.933 235.720 C 130.748 235.857, 130.765 235.748, 129.210 233.933 C 127.176 231.556, 127 231.545, 127 233.787 M 132 233.059 C 132 233.641, 132.450 233.840, 133 233.500 C 133.550 233.160, 134 232.684, 134 232.441 C 134 232.198, 133.550 232, 133 232 C 132.450 232, 132 232.477, 132 233.059 M 115.510 234.016 C 115.856 234.575, 116.557 234.774, 117.069 234.457 C 118.456 233.600, 118.198 233, 116.441 233 C 115.584 233, 115.165 233.457, 115.510 234.016 M 77.333 237.500 C 77.333 238.220, 77.933 238.579, 78.667 238.298 C 79.400 238.016, 80 237.657, 80 237.500 C 80 237.343, 79.400 236.984, 78.667 236.702 C 77.933 236.421, 77.333 236.780, 77.333 237.500 M 83.500 238 C 83.840 238.550, 84.316 239, 84.559 239 C 84.802 239, 85 238.550, 85 238 C 85 237.450, 84.523 237, 83.941 237 C 83.359 237, 83.160 237.450, 83.500 238 M 124 238.787 C 124 239.220, 124.900 239.642, 126 239.725 C 127.100 239.808, 128 239.454, 128 238.938 C 128 238.422, 127.100 238, 126 238 C 124.900 238, 124 238.354, 124 238.787" stroke="none" fill="#0d0d12" fill-rule="evenodd"/><path d="M 129.079 20.583 C 129.127 21.748, 129.364 21.985, 129.683 21.188 C 129.972 20.466, 129.936 19.603, 129.604 19.271 C 129.272 18.939, 129.036 19.529, 129.079 20.583 M 151 25 C 151 25.550, 151.450 26, 152 26 C 152.550 26, 153 25.550, 153 25 C 153 24.450, 152.550 24, 152 24 C 151.450 24, 151 24.450, 151 25 M 174 31.882 C 174 32.432, 174.450 33.160, 175 33.500 C 175.550 33.840, 176 33.668, 176 33.118 C 176 32.568, 175.550 31.840, 175 31.500 C 174.450 31.160, 174 31.332, 174 31.882 M 114.439 33.902 C 114.746 34.398, 113.391 35.752, 111.428 36.910 C 108.187 38.822, 107.663 38.877, 105.707 37.508 C 103.038 35.638, 101.374 35.541, 102.869 37.342 C 103.481 38.080, 103.687 38.980, 103.325 39.342 C 102.241 40.426, 100.982 40.086, 101.250 38.782 C 101.414 37.984, 100.412 37.661, 98.349 37.847 C 96.124 38.047, 94.586 37.472, 93.110 35.888 C 91.961 34.655, 90.716 33.950, 90.344 34.323 C 89.971 34.695, 90.247 35, 90.956 35 C 92.006 35, 92.007 35.287, 90.961 36.547 C 90.254 37.398, 89.412 37.693, 89.088 37.201 C 88.765 36.710, 87.263 36.005, 85.750 35.635 C 83.456 35.074, 83 35.287, 83 36.922 C 83 39.435, 81.391 40.461, 80.616 38.442 C 80.233 37.443, 80.427 37.146, 81.166 37.603 C 81.842 38.021, 82.036 37.868, 81.641 37.228 C 80.853 35.953, 74.695 37.419, 74.165 39.008 C 73.980 39.560, 73.348 39.715, 72.760 39.352 C 72.172 38.988, 71.978 39.155, 72.329 39.723 C 72.680 40.291, 71.399 42.417, 69.483 44.449 C 67.568 46.480, 65.993 47.773, 65.985 47.321 C 65.976 46.870, 65.560 47.147, 65.060 47.938 C 64.467 48.875, 64.646 50.084, 65.575 51.410 C 67.449 54.086, 67.382 55.361, 65.407 54.603 C 64.345 54.195, 63.640 54.659, 63.291 55.996 C 62.697 58.266, 62.152 58.388, 58.613 57.043 C 56.489 56.235, 56.193 56.339, 56.718 57.707 C 57.079 58.649, 56.927 59.073, 56.354 58.719 C 55.811 58.383, 54.665 59.659, 53.806 61.554 C 52.375 64.710, 52.381 65.005, 53.872 65.063 C 54.935 65.105, 54.691 65.451, 53.166 66.062 C 50.043 67.314, 51.001 69.554, 54.545 69.286 L 57.372 69.073 55.240 71.204 C 53.460 72.985, 52.853 73.123, 51.555 72.045 C 50.505 71.174, 50 71.120, 50 71.878 C 50 72.495, 49.212 73.014, 48.250 73.030 C 46.620 73.059, 46.624 73.133, 48.311 74.114 C 49.307 74.693, 50.833 74.894, 51.702 74.561 C 52.914 74.096, 53.030 74.259, 52.199 75.261 C 51.509 76.092, 51.452 77.101, 52.042 78.034 C 52.552 78.840, 52.969 80.175, 52.969 81 C 52.969 82.082, 52.755 82.163, 52.200 81.290 C 51.649 80.423, 51.066 80.665, 50.142 82.145 C 49.378 83.367, 49.304 83.930, 49.960 83.525 C 50.688 83.075, 50.922 83.648, 50.641 85.193 C 50.389 86.587, 51.027 88.550, 52.208 90.008 L 54.201 92.470 56.267 89.985 C 57.693 88.269, 58.126 88.067, 57.666 89.332 C 57.300 90.339, 57 91.828, 57 92.641 C 57 93.453, 56.550 93.840, 56 93.500 C 55.450 93.160, 54.438 93.233, 53.750 93.662 C 53.063 94.091, 51.655 94.574, 50.622 94.734 C 49.057 94.978, 48.838 94.558, 49.307 92.216 C 50.094 88.279, 48.592 86.026, 47.072 88.865 C 46.444 90.039, 46.249 91, 46.639 91 C 47.029 91, 46.332 92.082, 45.089 93.405 L 42.829 95.811 44.914 96.473 C 46.062 96.837, 47 97.603, 47 98.174 C 47 98.746, 47.638 98.969, 48.417 98.670 C 49.197 98.371, 50.097 98.810, 50.417 99.645 C 51.216 101.727, 51.161 102, 49.941 102 C 49.359 102, 49.189 101.503, 49.564 100.896 C 49.939 100.289, 49.104 100.541, 47.707 101.456 C 46.311 102.371, 44.900 103.819, 44.572 104.673 C 44.063 105.999, 43.723 106.026, 42.238 104.863 C 40.668 103.632, 40.632 103.668, 41.863 105.239 C 42.613 106.195, 43.626 106.731, 44.113 106.430 C 44.601 106.129, 45 106.373, 45 106.972 C 45 107.572, 44.325 108.322, 43.500 108.638 C 41.175 109.531, 41.729 111.946, 44.500 113 C 46.946 113.930, 47.981 116, 46 116 C 45.450 116, 45 117.575, 45 119.500 C 45 122.003, 44.556 123, 43.441 123 C 42.584 123, 42.148 123.430, 42.473 123.956 C 42.798 124.482, 43.777 124.639, 44.648 124.305 C 46.010 123.782, 46.062 124.016, 45.017 125.969 C 44.224 127.451, 44.183 128.005, 44.900 127.562 C 45.918 126.933, 46.108 127.473, 46.458 132.001 C 46.522 132.827, 46.969 134.141, 47.451 134.921 C 48.112 135.990, 47.917 136.182, 46.664 135.701 C 44.021 134.687, 44.751 136.377, 47.508 137.656 C 49.697 138.671, 50 138.580, 50 136.906 C 50 135.858, 50.638 135, 51.417 135 C 52.196 135, 52.994 134.519, 53.189 133.932 C 53.385 133.344, 53.545 134.624, 53.545 136.776 C 53.545 139.258, 54.226 141.369, 55.407 142.550 C 56.589 143.732, 56.852 144.549, 56.128 144.791 C 55.501 145, 55.302 145.695, 55.686 146.335 C 56.070 146.976, 55.538 146.825, 54.505 146 C 52.806 144.644, 52.687 144.663, 53.262 146.199 C 53.701 147.371, 53.480 147.738, 52.550 147.381 C 51.809 147.096, 50.905 147.344, 50.542 147.932 C 49.512 149.599, 46.208 149.187, 45.080 147.250 C 44.519 146.287, 44.047 146.026, 44.030 146.668 C 44.014 147.311, 43.712 148.587, 43.360 149.505 C 42.855 150.821, 43.225 151.102, 45.110 150.837 C 47.316 150.526, 47.503 150.842, 47.545 154.932 C 47.575 157.899, 48.070 159.518, 49.045 159.832 C 49.845 160.089, 50.831 160.795, 51.235 161.400 C 51.751 162.173, 51.974 162.143, 51.985 161.300 C 51.993 160.640, 51.274 159.693, 50.386 159.196 C 49.041 158.443, 48.975 157.915, 49.990 156.019 C 50.951 154.222, 50.945 153.584, 49.958 152.974 C 48.669 152.177, 49.305 149, 50.753 149 C 52.519 149, 54.776 154.484, 53.929 156.718 C 53.050 159.037, 54.216 160.603, 56 159.500 C 56.591 159.135, 57 160.255, 57 162.237 C 57 165.132, 57.332 165.587, 59.417 165.546 C 63.014 165.477, 63.595 164.251, 61.069 162.059 C 59.830 160.985, 59.072 159.692, 59.385 159.187 C 59.697 158.681, 59.063 157.462, 57.976 156.479 C 56.103 154.783, 55.269 152, 56.634 152 C 57.605 152, 61.997 157.362, 61.999 158.550 C 61.999 159.127, 62.563 160.162, 63.250 160.850 C 63.938 161.538, 64.500 163.422, 64.500 165.038 C 64.500 167.377, 64.144 167.863, 62.756 167.423 C 61.458 167.011, 61.171 167.282, 61.633 168.485 C 61.974 169.373, 63.546 170.359, 65.126 170.675 C 66.707 170.991, 68 171.869, 68 172.625 C 68 173.381, 68.367 174, 68.815 174 C 69.263 174, 70.381 175.575, 71.299 177.500 C 72.925 180.910, 72.471 182.071, 70.344 179.944 C 69.604 179.204, 68.911 179.800, 68.023 181.944 C 67.327 183.625, 66.555 185, 66.307 185 C 65.284 185, 63.144 182.190, 63.725 181.609 C 64.071 181.263, 63.487 180.286, 62.427 179.438 C 60.569 177.952, 60.584 177.920, 62.836 178.543 C 65.016 179.146, 65.090 179.033, 63.950 176.845 C 62.281 173.640, 62.437 173.710, 60.167 175.127 C 58.621 176.093, 58.366 176.816, 59.093 178.174 C 59.867 179.619, 59.712 179.859, 58.273 179.447 C 57.298 179.167, 57.513 179.471, 58.750 180.122 C 59.988 180.773, 61.004 181.799, 61.008 182.403 C 61.012 183.006, 62.248 184.073, 63.755 184.772 C 66.093 185.859, 66.667 185.809, 67.674 184.432 C 68.471 183.342, 69.606 183.031, 71.177 183.475 C 73.059 184.007, 73.215 183.914, 72 182.989 C 70.667 181.975, 70.667 181.896, 72 182.281 C 72.825 182.520, 73.435 183.470, 73.355 184.393 C 73.240 185.732, 73.497 185.832, 74.629 184.893 C 75.410 184.245, 76.342 184.009, 76.701 184.368 C 77.060 184.727, 76.487 185.677, 75.427 186.479 C 73.802 187.708, 73.755 187.941, 75.128 187.968 C 76.972 188.004, 79.613 185.279, 78.658 184.325 C 78.313 183.980, 78.812 183.062, 79.766 182.286 C 80.856 181.398, 81.090 180.699, 80.395 180.402 C 79.788 180.143, 79.513 178.767, 79.785 177.345 L 80.279 174.759 81.591 177.879 C 82.313 179.596, 83.600 181, 84.452 181 C 85.333 181, 86 181.861, 86 183 C 86 184.100, 85.550 185, 85 185 C 84.450 185, 84 184.325, 84 183.500 C 84 182.675, 83.743 182, 83.429 182 C 82.113 182, 79.639 185.365, 79.493 187.353 C 79.406 188.534, 78.577 189.647, 77.651 189.827 C 75.522 190.239, 69.980 187.841, 70.631 186.788 C 70.899 186.355, 70.304 186.015, 69.309 186.033 C 67.714 186.063, 67.766 186.289, 69.750 187.944 C 70.987 188.976, 72 190.232, 72 190.734 C 72 191.965, 82.313 191.762, 83.205 190.513 C 83.623 189.929, 84.760 190.439, 85.994 191.763 C 87.140 192.994, 87.780 194, 87.417 194 C 87.053 194, 87.373 194.748, 88.128 195.661 C 89.360 197.153, 89.219 197.269, 86.750 196.800 C 84.796 196.428, 84 196.688, 84 197.698 C 84 198.527, 84.486 198.817, 85.170 198.395 C 85.942 197.918, 86.135 198.205, 85.739 199.237 C 85.373 200.191, 85.796 201.043, 86.819 201.417 C 92.629 203.542, 93.732 205.821, 89.676 207.320 C 87.828 208.003, 87.658 211.361, 89.500 210.803 C 90.050 210.636, 90.393 210.179, 90.262 209.786 C 90.131 209.393, 90.694 209.329, 91.512 209.643 C 92.330 209.957, 93 210.616, 93 211.107 C 93 211.598, 93.702 212, 94.559 212 C 95.477 212, 95.858 212.514, 95.485 213.250 C 95.137 213.938, 95.548 213.643, 96.398 212.597 C 97.878 210.775, 97.975 210.771, 98.641 212.507 C 99.280 214.171, 99.403 214.143, 100.136 212.160 C 101.210 209.257, 105.467 209.107, 104.711 211.999 C 103.976 214.808, 106.006 215.692, 107.947 213.409 C 109.793 211.238, 111.939 210.514, 112.125 212 C 112.194 212.550, 112.306 213.450, 112.375 214 C 112.444 214.550, 112.838 215, 113.250 215 C 113.662 215, 114.675 215, 115.500 215 C 117.695 215, 117.334 211.900, 115.069 211.308 C 111.932 210.487, 113.761 208.400, 117.617 208.400 C 120.560 208.400, 120.900 208.600, 119.587 209.560 C 117.332 211.209, 117.618 212, 120.469 212 C 122.252 212, 122.777 211.584, 122.362 210.500 C 121.749 208.903, 122.803 208.553, 124.573 209.765 C 126.233 210.902, 127.017 213.828, 125.772 214.243 C 125.159 214.447, 124.588 215.558, 124.503 216.710 C 124.376 218.438, 124.713 218.668, 126.424 218.020 C 127.566 217.587, 128.375 216.535, 128.221 215.681 C 128.014 214.528, 128.656 214.211, 130.721 214.444 C 132.802 214.679, 133.420 215.227, 133.183 216.629 C 132.913 218.219, 133.109 218.163, 134.489 216.250 C 136.417 213.580, 138 213.332, 138 215.700 C 138 216.956, 138.293 217.107, 139.122 216.278 C 139.739 215.661, 140.909 215.412, 141.723 215.724 C 142.536 216.036, 143.494 215.822, 143.851 215.249 C 144.711 213.868, 148.034 213.492, 150.395 214.509 C 151.746 215.091, 152.675 214.797, 153.634 213.485 C 154.374 212.474, 155.308 211.975, 155.711 212.377 C 156.113 212.780, 155.793 213.510, 155 214 C 154.207 214.490, 153.812 215.145, 154.122 215.456 C 155.272 216.606, 160.197 210.957, 159.540 209.243 C 159.185 208.318, 159.214 207.881, 159.605 208.272 C 159.996 208.663, 160.867 208.525, 161.541 207.966 C 162.411 207.244, 162.950 207.428, 163.401 208.602 C 163.785 209.602, 163.338 210.771, 162.267 211.564 C 159.206 213.832, 162.958 212.660, 169.853 209.194 C 173.347 207.437, 177.086 206, 178.162 206 C 179.238 206, 179.840 205.550, 179.500 205 C 179.160 204.450, 179.407 204, 180.048 204 C 180.689 204, 180.955 203.325, 180.638 202.500 C 180.291 201.595, 180.633 201, 181.500 201 C 182.367 201, 182.709 200.405, 182.362 199.500 C 181.997 198.550, 182.375 198, 183.393 198 C 184.277 198, 185 198.436, 185 198.969 C 185 200.437, 187.387 199.211, 188.737 197.049 C 189.710 195.491, 189.599 194.726, 188.133 192.916 C 186.402 190.779, 186.330 186, 188.029 186 C 188.466 186, 189.129 184.194, 189.502 181.987 C 189.899 179.638, 190.940 177.567, 192.012 176.994 C 193.020 176.454, 194.595 175.262, 195.513 174.344 C 196.884 172.973, 197.331 172.918, 198.022 174.036 C 198.641 175.037, 199.041 174.684, 199.540 172.698 C 199.912 171.214, 200.506 169.943, 200.858 169.872 C 201.211 169.802, 202.531 169.638, 203.791 169.507 C 205.052 169.376, 206.671 168.465, 207.390 167.482 C 208.209 166.362, 209.184 165.996, 210.003 166.502 C 210.829 167.012, 211.066 166.916, 210.648 166.240 C 210.285 165.652, 210.551 164.983, 211.240 164.753 C 211.928 164.524, 212.526 163.698, 212.568 162.918 C 212.706 160.369, 215.172 155, 216.205 155 C 216.760 155, 216.960 154.338, 216.649 153.529 C 216.339 152.720, 216.763 151.380, 217.591 150.551 C 218.420 149.723, 219.017 148.472, 218.919 147.772 C 218.676 146.049, 221.245 140, 222.219 140 C 222.649 140, 223 138.859, 223 137.465 C 223 135.240, 222.756 135.060, 221 136 C 219.716 136.687, 218.374 136.735, 217.250 136.134 C 216.287 135.619, 215.056 135.265, 214.513 135.349 C 213.971 135.432, 212.934 134.262, 212.209 132.750 C 211.484 131.238, 210.214 130, 209.386 130 C 208.559 130, 208.146 129.573, 208.468 129.051 C 208.791 128.530, 208.541 126.063, 207.913 123.570 C 207.285 121.077, 207.119 118.241, 207.544 117.268 C 207.968 116.296, 208.225 114.938, 208.114 114.250 C 208.003 113.562, 208.368 113, 208.925 113 C 209.482 113, 209.671 112.307, 209.346 111.459 C 208.981 110.508, 209.247 110.030, 210.043 110.209 C 210.888 110.400, 211.419 109.182, 211.589 106.660 C 211.731 104.548, 212.079 102.588, 212.363 102.304 C 212.647 102.019, 211.996 100.838, 210.915 99.679 C 209.835 98.519, 209.182 96.969, 209.464 96.233 C 209.758 95.466, 209.527 95.174, 208.921 95.549 C 208.341 95.908, 207.620 95.261, 207.319 94.112 C 207.018 92.963, 206.405 92.250, 205.955 92.528 C 205.505 92.806, 204.544 92.238, 203.818 91.267 C 201.980 88.804, 198.850 88.484, 197.302 90.602 C 196.586 91.581, 196 92.010, 196 91.555 C 196 91.100, 194.821 91.907, 193.379 93.348 C 191.938 94.789, 190.343 95.712, 189.835 95.398 C 189.328 95.085, 188.270 95.361, 187.484 96.013 C 186.361 96.945, 185.697 96.840, 184.379 95.522 C 183.456 94.599, 181.869 94.063, 180.851 94.329 C 179.833 94.595, 179 94.425, 179 93.952 C 179 92.922, 174.210 88.001, 173.205 87.998 C 172.817 87.996, 172.452 86.646, 172.394 84.998 C 172.335 83.349, 172.681 82, 173.163 82 C 173.644 82, 173.759 80.888, 173.418 79.530 C 172.593 76.241, 174.903 73.807, 177.480 75.249 C 178.992 76.095, 179.209 75.986, 178.692 74.640 C 177.944 72.691, 179.040 72.508, 181.023 74.250 C 181.806 74.938, 181.636 74.525, 180.644 73.333 C 179.227 71.630, 179.072 70.735, 179.920 69.149 C 181.269 66.630, 181.297 65.699, 180 66.500 C 179.170 67.013, 178.861 65.430, 179.021 61.480 C 179.061 60.503, 176.501 58.209, 175.826 58.617 C 175.455 58.841, 173.038 57.901, 170.456 56.527 C 167.873 55.154, 165.287 54.322, 164.710 54.679 C 164.053 55.085, 163.907 54.686, 164.319 53.612 C 164.717 52.575, 164.578 52.143, 163.969 52.519 C 163.415 52.862, 161.507 52.664, 159.730 52.078 C 154.658 50.408, 150.002 50.141, 148.696 51.444 C 146.221 53.915, 143.269 53.886, 142.127 51.379 C 141.070 49.060, 139 48.089, 139 49.912 C 139 50.413, 138.237 50.711, 137.304 50.574 C 135.594 50.323, 134.719 49.169, 133.456 45.500 C 133.025 44.249, 132.592 43.968, 132.300 44.750 C 131.573 46.696, 129.709 46.219, 130.232 44.220 C 130.670 42.545, 128.970 40.053, 127.270 39.879 C 126.846 39.836, 126.628 39.349, 126.784 38.797 C 126.941 38.245, 126.161 37.007, 125.053 36.046 C 123.944 35.084, 123.366 33.933, 123.768 33.488 C 124.171 33.043, 123.825 33.086, 123 33.583 C 121.131 34.709, 116.960 34.874, 117.626 33.796 C 117.897 33.358, 117.165 33, 116 33 C 114.835 33, 114.133 33.406, 114.439 33.902 M 139.459 35.067 C 138.433 36.727, 139.354 36.957, 140.789 35.399 C 141.499 34.630, 141.638 34, 141.098 34 C 140.559 34, 139.821 34.480, 139.459 35.067 M 182 34.882 C 182 35.432, 182.450 36.160, 183 36.500 C 183.550 36.840, 184 36.668, 184 36.118 C 184 35.568, 183.550 34.840, 183 34.500 C 182.450 34.160, 182 34.332, 182 34.882 M 76 39.031 C 76 39.564, 76.675 40, 77.500 40 C 78.325 40, 79 39.823, 79 39.607 C 79 39.391, 78.325 38.955, 77.500 38.638 C 76.675 38.322, 76 38.499, 76 39.031 M 191.719 41.311 C 192.237 44.020, 198 46.866, 198 44.413 C 198 43.636, 197.152 43, 196.117 43 C 195.074 43, 194 42.107, 193.710 41 C 192.979 38.205, 191.179 38.486, 191.719 41.311 M 136 42 C 134.718 42.828, 134.754 42.972, 136.250 42.985 C 137.213 42.993, 138 42.550, 138 42 C 138 40.780, 137.887 40.780, 136 42 M 65.543 42.931 C 65.226 43.443, 65.425 44.144, 65.984 44.490 C 66.543 44.835, 67 44.416, 67 43.559 C 67 41.802, 66.400 41.544, 65.543 42.931 M 73.079 43.583 C 73.127 44.748, 73.364 44.985, 73.683 44.188 C 73.972 43.466, 73.936 42.603, 73.604 42.271 C 73.272 41.939, 73.036 42.529, 73.079 43.583 M 126 42.393 C 126 42.609, 126.698 43.054, 127.552 43.382 C 128.442 43.723, 128.843 43.555, 128.493 42.989 C 127.906 42.038, 126 41.583, 126 42.393 M 77.872 44.750 C 76.629 46.336, 76.664 46.371, 78.250 45.128 C 79.916 43.821, 80.445 43, 79.622 43 C 79.415 43, 78.627 43.788, 77.872 44.750 M 160.408 45.627 C 161.736 48.495, 162.571 48.662, 162.571 46.061 C 162.571 44.994, 161.839 43.930, 160.943 43.695 C 159.567 43.335, 159.484 43.634, 160.408 45.627 M 149 45 C 150.375 45.440, 150.911 45.845, 150.191 45.900 C 149.471 45.955, 149.190 46.498, 149.566 47.107 C 150.046 47.884, 150.491 47.824, 151.059 46.905 C 152.190 45.074, 151.268 43.982, 148.691 44.100 C 146.651 44.192, 146.673 44.255, 149 45 M 140 46.500 C 140 47.325, 140.436 48, 140.969 48 C 141.501 48, 141.678 47.325, 141.362 46.500 C 141.045 45.675, 140.609 45, 140.393 45 C 140.177 45, 140 45.675, 140 46.500 M 68.015 50.595 C 68.045 52.329, 69.777 54.241, 70.961 53.846 C 71.731 53.590, 71.418 52.784, 70.077 51.569 C 68.935 50.536, 68.007 50.097, 68.015 50.595 M 62 52.469 C 62 53.363, 62.586 53.712, 63.500 53.362 C 64.325 53.045, 65 52.384, 65 51.893 C 65 51.402, 64.325 51, 63.500 51 C 62.675 51, 62 51.661, 62 52.469 M 204 56 C 204 56.550, 204.627 57, 205.393 57 C 206.159 57, 207.045 57.675, 207.362 58.500 C 207.678 59.325, 208.412 60, 208.992 60 C 209.575 60, 209.315 58.884, 208.408 57.500 C 206.785 55.023, 204 54.075, 204 56 M 56.500 60 C 56.160 60.550, 56.246 61.007, 56.691 61.015 C 57.136 61.024, 56.999 61.361, 56.386 61.765 C 55.762 62.178, 55.578 63.353, 55.967 64.443 C 56.579 66.156, 56.858 65.991, 58.331 63.039 C 59.249 61.199, 60 59.537, 60 59.346 C 60 58.538, 57.065 59.086, 56.500 60 M 64.206 62.750 C 64.425 64.054, 63.926 64.420, 62.250 64.187 C 59.556 63.813, 59.212 65.561, 61.843 66.249 C 62.949 66.538, 64.150 65.990, 64.843 64.879 C 66.281 62.578, 66.327 61, 64.956 61 C 64.382 61, 64.045 61.788, 64.206 62.750 M 209 62 C 209 62.550, 209.450 63, 210 63 C 210.550 63, 211 62.550, 211 62 C 211 61.450, 210.550 61, 210 61 C 209.450 61, 209 61.450, 209 62 M 211.276 65.988 C 211.193 67.095, 211.732 68, 212.474 68 C 213.216 68, 213.711 67.237, 213.574 66.304 C 213.215 63.855, 211.455 63.613, 211.276 65.988 M 189.079 67.583 C 189.127 68.748, 189.364 68.985, 189.683 68.188 C 189.972 67.466, 189.936 66.603, 189.604 66.271 C 189.272 65.939, 189.036 66.529, 189.079 67.583 M 59.465 68.776 C 59.064 69.724, 58.601 71.514, 58.436 72.754 C 58.168 74.765, 58.298 74.845, 59.648 73.494 C 60.480 72.662, 61.500 72.191, 61.914 72.447 C 63.173 73.225, 62.753 69.610, 61.430 68.288 C 60.449 67.306, 60.044 67.407, 59.465 68.776 M 43 72 C 43 72.550, 43.477 73, 44.059 73 C 44.641 73, 44.840 72.550, 44.500 72 C 44.160 71.450, 43.684 71, 43.441 71 C 43.198 71, 43 71.450, 43 72 M 54.500 75 C 54.160 75.550, 54.359 76, 54.941 76 C 55.523 76, 56 75.550, 56 75 C 56 74.450, 55.802 74, 55.559 74 C 55.316 74, 54.840 74.450, 54.500 75 M 44.667 76.667 C 43.644 77.689, 43.875 81, 44.969 81 C 45.501 81, 45.676 80.320, 45.357 79.489 C 44.962 78.459, 45.238 78.154, 46.222 78.532 C 47.097 78.867, 47.667 78.478, 47.667 77.543 C 47.667 75.975, 45.880 75.453, 44.667 76.667 M 53 78.034 C 53 78.683, 53.646 78.966, 54.435 78.663 C 55.225 78.360, 56.091 78.548, 56.360 79.081 C 56.630 79.614, 56.734 79.476, 56.592 78.775 C 56.262 77.140, 53 76.467, 53 78.034 M 177.459 78.067 C 177.096 78.653, 177.014 79.348, 177.276 79.610 C 177.538 79.872, 178.019 79.392, 178.345 78.543 C 179.021 76.781, 178.445 76.471, 177.459 78.067 M 43.882 82.750 C 43.816 83.162, 43.833 83.888, 43.919 84.362 C 44.005 84.837, 43.271 85.835, 42.287 86.581 C 40.571 87.882, 40.572 87.938, 42.292 87.968 C 44.796 88.013, 46.786 85.897, 46.232 83.780 C 45.773 82.023, 44.111 81.295, 43.882 82.750 M 54.500 83 C 54.160 83.550, 54.610 84, 55.500 84 C 56.390 84, 56.840 83.550, 56.500 83 C 56.160 82.450, 55.710 82, 55.500 82 C 55.290 82, 54.840 82.450, 54.500 83 M 54.149 86.667 C 53.406 87.472, 53.005 88.338, 53.257 88.590 C 53.509 88.842, 54.293 88.352, 55 87.500 C 56.669 85.489, 55.916 84.751, 54.149 86.667 M 195 88 C 195 88.550, 195.477 89, 196.059 89 C 196.641 89, 196.840 88.550, 196.500 88 C 196.160 87.450, 195.684 87, 195.441 87 C 195.198 87, 195 87.450, 195 88 M 184.333 89.456 C 184.333 90.257, 184.708 90.680, 185.167 90.397 C 185.625 90.114, 186 89.459, 186 88.941 C 186 88.423, 185.625 88, 185.167 88 C 184.708 88, 184.333 88.655, 184.333 89.456 M 34.399 90.250 C 34.003 90.938, 34.048 91.166, 34.498 90.759 C 34.948 90.351, 36.032 90.576, 36.908 91.259 C 38.317 92.357, 38.342 92.298, 37.128 90.750 C 35.492 88.664, 35.328 88.634, 34.399 90.250 M 192.500 90 C 192.840 90.550, 193.316 91, 193.559 91 C 193.802 91, 194 90.550, 194 90 C 194 89.450, 193.523 89, 192.941 89 C 192.359 89, 192.160 89.450, 192.500 90 M 39 94.800 C 39 95.790, 38.441 97.159, 37.758 97.842 C 36.770 98.830, 36.811 99.265, 37.961 99.976 C 39.573 100.972, 41.317 100.322, 40.515 99.024 C 40.230 98.563, 40.969 98.441, 42.157 98.751 L 44.316 99.316 42.121 97.121 C 40.915 95.915, 40.195 94.493, 40.523 93.964 C 40.850 93.434, 40.641 93, 40.059 93 C 39.477 93, 39 93.810, 39 94.800 M 50.007 103.960 C 47.789 105.664, 47.706 105.950, 49.257 106.545 C 50.215 106.913, 51 108.039, 51 109.048 C 51 110.057, 51.403 111.131, 51.895 111.435 C 53.194 112.238, 53.972 109.567, 52.923 107.909 C 51.718 106.006, 51.762 103.735, 52.989 104.493 C 53.555 104.843, 53.723 104.442, 53.382 103.552 C 52.665 101.685, 53.024 101.642, 50.007 103.960 M 38.114 105.929 C 37.255 106.461, 37.152 106.976, 37.824 107.391 C 38.395 107.744, 39.163 107.545, 39.531 106.950 C 40.449 105.464, 39.719 104.938, 38.114 105.929 M 46 108.531 C 46 110.149, 47.563 110.517, 48.435 109.105 C 48.740 108.612, 48.316 107.952, 47.494 107.636 C 46.587 107.288, 46 107.639, 46 108.531 M 43 111 C 43 111.550, 43.450 112, 44 112 C 44.550 112, 45 111.550, 45 111 C 45 110.450, 44.550 110, 44 110 C 43.450 110, 43 110.450, 43 111 M 56.554 111.912 C 56.086 112.670, 56.423 113.852, 57.382 114.810 C 59.097 116.526, 59.347 115.746, 58.102 112.566 C 57.538 111.125, 57.144 110.958, 56.554 111.912 M 36 115.857 C 36 117.116, 38.834 120, 40.071 120 C 40.582 120, 41 119.550, 41 119 C 41 118.450, 40.582 118, 40.071 118 C 39.561 118, 38.436 117.293, 37.571 116.429 C 36.707 115.564, 36 115.307, 36 115.857 M 48.559 116.333 C 46.817 117.607, 46.813 117.785, 48.483 120.333 C 49.444 121.800, 50.614 123, 51.084 123 C 52.141 123, 51.014 119.746, 49.637 118.826 C 48.986 118.391, 49.092 117.594, 49.937 116.576 C 51.536 114.649, 50.993 114.553, 48.559 116.333 M 215.250 119.720 C 214.563 119.966, 214 120.901, 214 121.798 C 214 123.282, 214.152 123.277, 215.690 121.738 C 217.498 119.930, 217.293 118.991, 215.250 119.720 M 36 122.059 C 36 122.641, 36.450 122.840, 37 122.500 C 37.550 122.160, 38 121.684, 38 121.441 C 38 121.198, 37.550 121, 37 121 C 36.450 121, 36 121.477, 36 122.059 M 57.389 122.570 C 57.725 123.447, 58 124.378, 58 124.641 C 58 124.903, 58.450 124.840, 59 124.500 C 60.484 123.583, 60.213 122.296, 58.389 121.596 C 57.209 121.143, 56.941 121.404, 57.389 122.570 M 46.789 126.314 C 47.001 128.137, 47.982 130.132, 48.967 130.748 C 50.598 131.766, 50.692 131.569, 50.012 128.551 C 48.627 122.410, 46.130 120.678, 46.789 126.314 M 37.529 128.132 C 39.535 134.565, 40.085 135.479, 41.042 133.966 C 42.337 131.918, 42.222 131, 40.671 131 C 39.939 131, 39.377 130.033, 39.421 128.851 C 39.464 127.669, 38.890 126.491, 38.145 126.233 C 37.132 125.882, 36.977 126.361, 37.529 128.132 M 57.878 126.904 C 58.681 127.412, 58.930 128.305, 58.474 129.043 C 57.964 129.867, 58.094 130.060, 58.845 129.595 C 60.626 128.495, 60.211 125.998, 58.250 126.015 C 56.866 126.027, 56.788 126.213, 57.878 126.904 M 67 129.878 C 67 131.465, 69.763 133.193, 70.470 132.049 C 70.826 131.472, 70.390 131, 69.500 131 C 68.610 131, 68.160 130.550, 68.500 130 C 68.840 129.450, 68.641 129, 68.059 129 C 67.477 129, 67 129.395, 67 129.878 M 213 129.878 C 213 130.360, 213.787 131.373, 214.750 132.128 C 216.298 133.342, 216.357 133.317, 215.259 131.908 C 214.576 131.032, 214.313 130.020, 214.675 129.658 C 215.037 129.296, 214.808 129, 214.167 129 C 213.525 129, 213 129.395, 213 129.878 M 60 134.559 C 60 135.416, 60.457 135.835, 61.016 135.490 C 61.575 135.144, 61.774 134.443, 61.457 133.931 C 60.600 132.544, 60 132.802, 60 134.559 M 41.710 140 C 41.423 141.100, 41.543 142, 41.977 142 C 42.411 142, 43.002 141.100, 43.290 140 C 43.577 138.900, 43.457 138, 43.023 138 C 42.589 138, 41.998 138.900, 41.710 140 M 71.573 139.670 C 71.221 140.589, 71.362 141.606, 71.887 141.930 C 72.412 142.255, 73.151 143.753, 73.529 145.260 C 73.907 146.767, 74.670 148, 75.225 148 C 75.779 148, 76.011 149.160, 75.740 150.578 C 75.362 152.555, 75.773 153.395, 77.503 154.183 C 78.957 154.846, 79.594 155.835, 79.298 156.968 C 78.985 158.164, 79.558 158.913, 81.093 159.314 C 85.326 160.421, 86.630 157.570, 82.593 156.035 C 80.990 155.426, 79.950 154.013, 79.481 151.810 C 79.094 149.989, 78.209 147.825, 77.515 147 C 76.821 146.175, 75.711 143.813, 75.049 141.750 C 73.751 137.708, 72.592 137.015, 71.573 139.670 M 46.229 140.937 C 46.493 142.319, 52.737 144.597, 53.679 143.654 C 53.932 143.402, 53.592 142.319, 52.923 141.248 C 51.460 138.906, 45.791 138.642, 46.229 140.937 M 61.667 139.667 C 60.200 141.133, 61.116 142.994, 63.250 142.884 C 65.054 142.791, 65.139 142.675, 63.677 142.297 C 62.604 142.019, 62.076 141.243, 62.395 140.413 C 62.982 138.882, 62.720 138.613, 61.667 139.667 M 31 145.059 C 31 145.641, 31.450 145.840, 32 145.500 C 32.550 145.160, 33 144.684, 33 144.441 C 33 144.198, 32.550 144, 32 144 C 31.450 144, 31 144.477, 31 145.059 M 63 145.441 C 63 146.234, 63.423 147.143, 63.939 147.463 C 64.456 147.782, 64.810 147.134, 64.727 146.022 C 64.555 143.738, 63 143.215, 63 145.441 M 66 148.500 C 66 149.942, 66.576 151, 67.361 151 C 68.274 151, 68.565 150.176, 68.245 148.500 C 67.982 147.125, 67.369 146, 66.883 146 C 66.398 146, 66 147.125, 66 148.500 M 53.500 150 C 53.160 150.550, 53.584 151, 54.441 151 C 55.298 151, 56 150.550, 56 150 C 56 149.450, 55.577 149, 55.059 149 C 54.541 149, 53.840 149.450, 53.500 150 M 65.849 155.328 C 67.443 158.651, 67.560 158.706, 69.250 156.927 C 71.392 154.671, 71.502 153.593, 69.512 154.357 C 68.662 154.683, 68.126 154.418, 68.262 153.738 C 68.393 153.083, 67.532 152.399, 66.349 152.217 C 64.235 151.893, 64.226 151.948, 65.849 155.328 M 101.015 156.750 C 101.040 157.941, 102.966 160.610, 103 159.500 C 103.017 158.950, 103.449 159.162, 103.961 159.971 C 104.473 160.780, 105.130 161.203, 105.423 160.911 C 106.128 160.205, 103.149 156, 101.943 156 C 101.424 156, 101.007 156.338, 101.015 156.750 M 44.667 157.667 C 44.300 158.033, 44 158.798, 44 159.367 C 44 159.993, 44.466 159.934, 45.183 159.217 C 45.834 158.566, 46.134 157.801, 45.850 157.517 C 45.566 157.232, 45.033 157.300, 44.667 157.667 M 71.510 160.016 C 71.856 160.575, 72.557 160.774, 73.069 160.457 C 74.456 159.600, 74.198 159, 72.441 159 C 71.584 159, 71.165 159.457, 71.510 160.016 M 69.500 162 C 69.840 162.550, 70.316 163, 70.559 163 C 70.802 163, 71 162.550, 71 162 C 71 161.450, 70.523 161, 69.941 161 C 69.359 161, 69.160 161.450, 69.500 162 M 94 162.441 C 94 163.298, 94.450 164, 95 164 C 95.550 164, 96 163.577, 96 163.059 C 96 162.541, 95.550 161.840, 95 161.500 C 94.450 161.160, 94 161.584, 94 162.441 M 82 163 C 82 163.550, 82.623 164, 83.383 164 C 84.805 164, 85.962 166.917, 85.986 170.562 C 85.998 172.299, 90.725 177, 92.460 177 C 94.136 177, 92.610 173.779, 90.472 172.805 C 88.937 172.106, 88.376 171.385, 89.046 170.972 C 89.797 170.507, 89.627 169.770, 88.510 168.653 C 87.609 167.752, 87.130 166.598, 87.445 166.088 C 88.174 164.910, 85.315 162, 83.429 162 C 82.643 162, 82 162.450, 82 163 M 103.750 163.662 C 104.438 163.940, 105 164.831, 105 165.642 C 105 166.454, 105.450 166.840, 106 166.500 C 107.894 165.329, 107.043 162.998, 104.750 163.079 C 103.513 163.122, 103.063 163.385, 103.750 163.662 M 52.543 166.931 C 52.226 167.443, 52.425 168.144, 52.984 168.490 C 53.543 168.835, 54 168.416, 54 167.559 C 54 165.802, 53.400 165.544, 52.543 166.931 M 97 169 C 97 169.550, 97.450 170, 98 170 C 98.550 170, 99 169.550, 99 169 C 99 168.450, 98.550 168, 98 168 C 97.450 168, 97 168.450, 97 169 M 107 169.419 C 107 170.335, 107.843 171.988, 108.873 173.094 C 110.518 174.860, 110.821 174.909, 111.362 173.500 C 111.719 172.569, 111.562 172.152, 110.989 172.507 C 110.445 172.843, 110 172.472, 110 171.681 C 110 170.891, 109.325 169.685, 108.500 169 C 107.269 167.978, 107 168.053, 107 169.419 M 50.500 170 C 50.160 170.550, 50.359 171, 50.941 171 C 51.523 171, 52 170.550, 52 170 C 52 169.450, 51.802 169, 51.559 169 C 51.316 169, 50.840 169.450, 50.500 170 M 72.409 172.376 C 71.574 174.553, 72.158 175.138, 74.021 173.987 C 75.164 173.280, 75.220 172.820, 74.274 171.874 C 73.329 170.929, 72.922 171.039, 72.409 172.376 M 77.569 172.112 C 77.947 172.723, 77.696 173.570, 77.012 173.993 C 76.086 174.565, 76.046 175.241, 76.853 176.631 C 77.451 177.659, 77.983 178.275, 78.037 178 C 78.829 173.953, 78.785 171, 77.933 171 C 77.355 171, 77.191 171.500, 77.569 172.112 M 64.597 174.250 C 66.130 176.931, 67.263 177.955, 68.116 177.428 C 69.419 176.623, 67.202 173, 65.406 173 C 64.472 173, 64.159 173.484, 64.597 174.250 M 53.768 176.168 C 54.350 176.750, 55.415 177.028, 56.137 176.788 C 56.886 176.538, 56.432 176.085, 55.080 175.731 C 53.417 175.296, 53.026 175.426, 53.768 176.168 M 110.781 176.552 C 110.031 177.303, 112.075 181, 113.241 181 C 114.375 181, 114.160 179.601, 112.723 177.635 C 112.020 176.674, 111.146 176.187, 110.781 176.552 M 122 181 C 122 181.550, 122.477 182, 123.059 182 C 123.641 182, 123.840 181.550, 123.500 181 C 123.160 180.450, 122.684 180, 122.441 180 C 122.198 180, 122 180.450, 122 181 M 95.250 181.720 C 93.749 182.256, 93.566 185, 95.031 185 C 96.063 185, 97.578 182.198, 96.874 181.594 C 96.668 181.418, 95.938 181.475, 95.250 181.720 M 112 183 C 112 183.550, 112.477 184, 113.059 184 C 113.641 184, 113.840 183.550, 113.500 183 C 113.160 182.450, 112.684 182, 112.441 182 C 112.198 182, 112 182.450, 112 183 M 104.500 184 C 104.160 184.550, 104.359 185, 104.941 185 C 105.523 185, 106 184.550, 106 184 C 106 183.450, 105.802 183, 105.559 183 C 105.316 183, 104.840 183.450, 104.500 184 M 61 187 C 61 187.550, 61.450 188, 62 188 C 62.550 188, 63 187.550, 63 187 C 63 186.450, 62.550 186, 62 186 C 61.450 186, 61 186.450, 61 187 M 88.029 187.466 C 86.937 188.781, 87.129 188.967, 89.389 188.780 C 90.836 188.660, 91.875 188.126, 91.698 187.594 C 91.143 185.930, 89.355 185.868, 88.029 187.466 M 192.636 188.506 C 192.321 189.328, 192.472 190, 192.972 190 C 194.328 190, 195.170 188.223, 194.121 187.575 C 193.620 187.265, 192.952 187.684, 192.636 188.506 M 65.079 190.167 C 65.036 191.083, 66.237 192.734, 67.748 193.835 C 69.260 194.936, 70.135 196.198, 69.694 196.640 C 69.252 197.081, 68.484 196.784, 67.987 195.979 C 67.267 194.815, 66.830 194.770, 65.842 195.758 C 64.853 196.747, 64.915 197, 66.147 197 C 67.998 197, 71.402 199.861, 72.237 202.118 C 72.566 203.007, 73.984 203.955, 75.388 204.223 C 76.791 204.492, 77.757 204.416, 77.534 204.056 C 77.312 203.695, 78.010 202.850, 79.087 202.178 C 80.693 201.175, 81.150 201.228, 81.627 202.472 C 81.948 203.306, 82.632 203.727, 83.149 203.408 C 83.665 203.089, 84.850 203.429, 85.782 204.164 C 87.364 205.411, 87.370 205.334, 85.874 203 C 84.992 201.625, 83.310 200.356, 82.135 200.180 C 80.961 200.005, 79.968 199.105, 79.930 198.180 C 79.871 196.773, 79.738 196.808, 79.116 198.395 C 78.360 200.321, 73 201.667, 73 199.932 C 73 199.419, 73.468 199, 74.040 199 C 74.613 199, 73.938 197.767, 72.540 196.260 C 71.143 194.753, 70 192.953, 70 192.260 C 70 191.567, 69.138 191, 68.083 191 C 67.029 191, 65.940 190.438, 65.662 189.750 C 65.348 188.970, 65.128 189.127, 65.079 190.167 M 117.923 189.250 C 117.211 191.578, 117.441 193, 118.529 193 C 119.273 193, 120.160 192.550, 120.500 192 C 120.840 191.450, 120.390 191, 119.500 191 C 118.610 191, 118.160 190.550, 118.500 190 C 118.840 189.450, 118.866 189, 118.559 189 C 118.252 189, 117.966 189.113, 117.923 189.250 M 92 191 C 92 191.550, 92.450 192, 93 192 C 93.550 192, 94 191.550, 94 191 C 94 190.450, 93.550 190, 93 190 C 92.450 190, 92 190.450, 92 191 M 99 191.500 C 99 192.325, 99.177 193, 99.393 193 C 99.609 193, 100.045 192.325, 100.362 191.500 C 100.678 190.675, 100.501 190, 99.969 190 C 99.436 190, 99 190.675, 99 191.500 M 76.250 192.662 C 74.492 193.372, 74.688 196, 76.500 196 C 77.325 196, 78.036 195.213, 78.079 194.250 C 78.126 193.205, 78.361 193.003, 78.662 193.750 C 78.940 194.438, 79.890 195, 80.774 195 C 82.100 195, 82.042 194.742, 80.441 193.532 C 78.345 191.946, 78.133 191.902, 76.250 192.662 M 94.500 194.999 C 93.988 196.614, 93.499 196.802, 91.955 195.976 C 90.414 195.151, 90.158 195.248, 90.629 196.477 C 91.004 197.452, 90.635 198, 89.607 198 C 88.723 198, 88 198.450, 88 199 C 88 200.250, 89.296 200.293, 90.550 199.085 C 91.073 198.581, 92.625 198.019, 94 197.835 C 95.783 197.596, 96.533 196.854, 96.613 195.250 C 96.754 192.462, 95.358 192.296, 94.500 194.999 M 125 195.409 C 125 195.599, 125.675 196.315, 126.500 197 C 127.365 197.718, 128 197.815, 128 197.229 C 128 196.671, 127.325 195.955, 126.500 195.638 C 125.675 195.322, 125 195.219, 125 195.409 M 104.349 197.689 C 104.730 198.342, 104.284 199.301, 103.358 199.819 C 101.865 200.655, 101.931 200.843, 103.938 201.480 C 107.291 202.544, 108.445 200.702, 105.852 198.426 C 104.644 197.367, 103.968 197.035, 104.349 197.689 M 136.813 197.683 C 137.534 197.972, 138.397 197.936, 138.729 197.604 C 139.061 197.272, 138.471 197.036, 137.417 197.079 C 136.252 197.127, 136.015 197.364, 136.813 197.683 M 169 197.393 C 169 198.342, 171.993 198.820, 172.527 197.956 C 172.852 197.430, 172.191 197, 171.059 197 C 169.927 197, 169 197.177, 169 197.393 M 59.733 199.124 C 60.412 199.808, 61.219 200.115, 61.526 199.807 C 61.834 199.499, 61.279 198.940, 60.293 198.564 C 58.868 198.022, 58.753 198.136, 59.733 199.124 M 176.667 200.667 C 176.300 201.033, 176 201.798, 176 202.367 C 176 202.993, 176.466 202.934, 177.183 202.217 C 177.834 201.566, 178.134 200.801, 177.850 200.517 C 177.566 200.232, 177.033 200.300, 176.667 200.667 M 75.500 202 C 75.840 202.550, 76.316 203, 76.559 203 C 76.802 203, 77 202.550, 77 202 C 77 201.450, 76.523 201, 75.941 201 C 75.359 201, 75.160 201.450, 75.500 202 M 91 202 C 90.139 202.556, 89.998 202.976, 90.668 202.985 C 91.311 202.993, 92.548 203.273, 93.418 203.607 C 94.456 204.005, 95 203.662, 95 202.607 C 95 200.805, 93.258 200.541, 91 202 M 96.638 202.500 C 96.955 203.325, 97.391 204, 97.607 204 C 97.823 204, 98 203.325, 98 202.500 C 98 201.675, 97.564 201, 97.031 201 C 96.499 201, 96.322 201.675, 96.638 202.500 M 98.200 204.200 C 96.499 205.901, 96.713 206.997, 98.750 207.015 C 100.113 207.027, 100.200 207.221, 99.143 207.890 C 98.226 208.471, 98.136 208.966, 98.864 209.416 C 100.235 210.264, 101.588 205.188, 100.327 203.927 C 99.758 203.358, 98.937 203.463, 98.200 204.200 M 170.250 203.720 C 168.841 204.224, 168.517 208, 169.883 208 C 170.369 208, 171.026 207.007, 171.344 205.794 C 172.009 203.250, 171.939 203.117, 170.250 203.720 M 114 204.941 C 114 205.459, 114.450 206.160, 115 206.500 C 115.550 206.840, 116 206.416, 116 205.559 C 116 204.702, 115.550 204, 115 204 C 114.450 204, 114 204.423, 114 204.941 M 128 205.417 C 128 206.287, 128.713 207, 129.583 207 C 131.349 207, 131.042 204.847, 129.188 204.229 C 128.534 204.011, 128 204.546, 128 205.417 M 83.638 206.500 C 84.276 208.162, 82.478 208.583, 81.500 207 C 81.160 206.450, 80.159 206, 79.274 206 C 77.482 206, 78.492 207.474, 80.333 207.545 C 80.975 207.570, 81.425 208.020, 81.333 208.545 C 81.242 209.070, 82.254 209.500, 83.583 209.500 C 84.912 209.500, 86 209.199, 86 208.832 C 86 207.342, 84.732 205, 83.924 205 C 83.451 205, 83.322 205.675, 83.638 206.500 M 133.745 207.554 C 133.501 208.828, 133.572 210.288, 133.901 210.798 C 134.973 212.458, 139.297 211.429, 140.074 209.329 C 140.714 207.598, 140.478 207.377, 138.410 207.772 C 137.085 208.026, 136 208.631, 136 209.117 C 136 209.602, 135.438 209.985, 134.750 209.967 C 134.063 209.948, 134.501 209.098, 135.725 208.077 C 137.821 206.328, 137.841 206.192, 136.069 205.728 C 134.698 205.370, 134.068 205.865, 133.745 207.554 M 164.872 206.750 C 163.603 208.369, 163.650 208.390, 165.500 207.033 C 166.600 206.226, 167.688 205.439, 167.917 205.283 C 168.146 205.127, 167.863 205, 167.289 205 C 166.715 205, 165.627 205.787, 164.872 206.750 M 108 207.081 C 106.568 207.493, 106.212 207.843, 107.167 207.900 C 108.083 207.955, 108.983 208.436, 109.167 208.968 C 109.350 209.500, 110.039 209.601, 110.697 209.192 C 112.739 207.922, 110.678 206.309, 108 207.081 M 151.500 208 C 151.160 208.550, 151.359 209, 151.941 209 C 152.523 209, 153 208.550, 153 208 C 153 207.450, 152.802 207, 152.559 207 C 152.316 207, 151.840 207.450, 151.500 208 M 127 208.938 C 127 209.454, 127.869 209.810, 128.931 209.730 C 129.993 209.650, 130.641 209.228, 130.372 208.792 C 129.686 207.684, 127 207.799, 127 208.938 M 141.609 210.824 C 141.256 211.395, 141.455 212.163, 142.050 212.531 C 143.536 213.449, 144.062 212.719, 143.071 211.114 C 142.539 210.255, 142.024 210.152, 141.609 210.824 M 75.813 211.683 C 76.534 211.972, 77.397 211.936, 77.729 211.604 C 78.061 211.272, 77.471 211.036, 76.417 211.079 C 75.252 211.127, 75.015 211.364, 75.813 211.683 M 101.290 217 C 101.002 218.100, 100.369 219, 99.883 219 C 99.398 219, 99.036 219.787, 99.079 220.750 C 99.129 221.863, 99.347 222.030, 99.676 221.208 C 100.088 220.183, 100.500 220.170, 101.673 221.144 C 102.855 222.125, 103.335 222.083, 104.061 220.936 C 105.390 218.835, 105.197 217.710, 103.613 218.318 C 102.640 218.692, 102.377 218.276, 102.730 216.925 C 103.007 215.866, 102.914 215, 102.523 215 C 102.132 215, 101.577 215.900, 101.290 217 M 144.362 216.500 C 144.045 217.325, 142.908 218, 141.834 218 C 140.760 218, 140.131 218.403, 140.436 218.896 C 141.024 219.849, 147.686 218.693, 148.829 217.440 C 149.198 217.035, 148.521 216.945, 147.325 217.239 C 145.749 217.626, 145.296 217.391, 145.682 216.387 C 145.975 215.624, 145.927 215, 145.576 215 C 145.224 215, 144.678 215.675, 144.362 216.500 M 114 216.882 C 114 217.432, 114.450 218.160, 115 218.500 C 115.550 218.840, 116 218.668, 116 218.118 C 116 217.568, 115.550 216.840, 115 216.500 C 114.450 216.160, 114 216.332, 114 216.882 M 111 218 C 111 218.550, 111.450 219, 112 219 C 112.550 219, 113 218.550, 113 218 C 113 217.450, 112.550 217, 112 217 C 111.450 217, 111 217.450, 111 218 M 121.500 218 C 121.849 218.565, 121.030 219, 119.618 219 C 118.243 219, 116.840 219.450, 116.500 220 C 116.151 220.565, 116.970 221, 118.382 221 C 119.757 221, 121.160 221.450, 121.500 222 C 121.840 222.550, 122.879 222.986, 123.809 222.970 C 125.334 222.942, 125.324 222.837, 123.706 221.895 C 122.528 221.210, 122.122 220.191, 122.524 218.926 C 122.880 217.803, 122.665 217, 122.008 217 C 121.389 217, 121.160 217.450, 121.500 218 M 106.667 218.667 C 106.300 219.033, 106 219.798, 106 220.367 C 106 220.993, 106.466 220.934, 107.183 220.217 C 107.834 219.566, 108.134 218.801, 107.850 218.517 C 107.566 218.232, 107.033 218.300, 106.667 218.667 M 109.726 220.842 C 108.241 221.429, 108.443 221.729, 110.962 222.679 C 113.766 223.738, 113.902 223.685, 112.951 221.908 C 112.389 220.859, 111.833 220.032, 111.715 220.070 C 111.597 220.109, 110.702 220.456, 109.726 220.842 M 128.507 220.989 C 128.157 221.555, 128.558 221.723, 129.448 221.382 C 131.180 220.717, 131.497 220, 130.059 220 C 129.541 220, 128.843 220.445, 128.507 220.989 M 134.768 221.168 C 135.350 221.750, 136.415 222.028, 137.137 221.788 C 137.886 221.538, 137.432 221.085, 136.080 220.731 C 134.417 220.296, 134.026 220.426, 134.768 221.168 M 174.146 222.324 C 173.542 223.052, 173.221 224.553, 173.434 225.659 C 173.979 228.486, 172.785 230.103, 170.978 228.987 C 169.729 228.215, 169.792 227.872, 171.403 226.695 C 173.248 225.346, 173.244 225.297, 171.266 224.780 C 168.002 223.926, 160.541 226.273, 160.206 228.258 C 160.045 229.216, 160.382 230, 160.956 230 C 161.530 230, 162 229.550, 162 229 C 162 227.527, 164.338 227.784, 166.559 229.500 C 168.375 230.903, 168.390 231.086, 166.795 232.327 C 165.858 233.057, 162.483 233.758, 159.295 233.885 C 156.108 234.012, 153.072 234.539, 152.550 235.058 C 151.234 236.363, 149.731 236.244, 150.562 234.900 C 150.968 234.243, 150.288 234.326, 148.871 235.106 C 146.859 236.215, 146.765 236.468, 148.250 236.780 C 149.213 236.981, 150 237.509, 150 237.952 C 150 238.395, 147.300 238.541, 144 238.278 C 140.283 237.980, 138 238.185, 138 238.816 C 138 239.375, 138.563 240.060, 139.250 240.338 C 139.938 240.615, 139.435 240.878, 138.133 240.921 C 136.154 240.987, 135.843 240.604, 136.230 238.577 C 136.566 236.820, 136.185 236.020, 134.847 235.670 C 133.831 235.405, 133 235.595, 133 236.094 C 133 236.592, 133.450 237, 134 237 C 135.884 237, 135.006 240.765, 133 241.290 C 131.517 241.678, 131 241.320, 131 239.906 C 131 238.858, 130.550 238, 130 238 C 129.450 238, 129.053 238.338, 129.118 238.750 C 129.491 241.111, 128.849 242.156, 127.373 241.590 C 126.479 241.246, 125.188 241.429, 124.506 241.995 C 123.629 242.723, 122.897 242.581, 122.010 241.512 C 121.079 240.391, 121.060 240, 121.937 240 C 122.586 240, 122.810 239.502, 122.434 238.893 C 121.954 238.117, 121.507 238.180, 120.936 239.103 C 120.285 240.157, 119.735 240.071, 118.193 238.675 C 116.331 236.990, 116.281 237.017, 116.748 239.464 C 117.319 242.448, 117.445 242.421, 111.970 240.489 C 109.615 239.658, 107.464 239.202, 107.191 239.476 C 106.917 239.750, 105.187 239.043, 103.347 237.905 L 100 235.837 100 237.918 C 100 240.315, 99.183 240.468, 95.297 238.798 C 91.459 237.148, 91.356 237.019, 93.029 235.961 C 93.838 235.449, 93.993 235.024, 93.372 235.015 C 92.752 235.007, 91.685 235.675, 91 236.500 C 89.352 238.485, 88.260 238.394, 87.568 236.213 C 86.726 233.562, 82.913 233.627, 82.199 236.304 C 81.627 238.448, 81.599 238.441, 81.009 236 C 80.676 234.625, 79.751 233.488, 78.952 233.474 C 78.154 233.459, 76.988 233.126, 76.363 232.735 C 74.845 231.783, 72.813 234.349, 73.555 236.281 C 74.046 237.562, 73.387 237.738, 69.582 237.341 C 65.620 236.928, 64.722 237.203, 62.760 239.432 C 60.723 241.745, 60.253 241.871, 58 240.712 C 55.609 239.483, 55.361 239.646, 52.311 244.463 L 49.123 249.500 122.221 249.757 C 162.426 249.898, 195.513 249.820, 195.749 249.584 C 195.985 249.348, 195.085 247.548, 193.750 245.583 C 192.415 243.618, 191.138 242.195, 190.911 242.421 C 190.685 242.647, 190.430 241.657, 190.344 240.221 C 190.258 238.785, 189.545 237.135, 188.759 236.555 C 187.974 235.975, 187.013 234.222, 186.624 232.659 C 186.174 230.852, 185.427 230.006, 184.571 230.334 C 183.644 230.690, 183.383 230.252, 183.730 228.925 C 184.131 227.392, 183.707 227, 181.652 227 C 180.082 227, 178.645 226.205, 177.985 224.972 C 177.388 223.857, 176.472 223.208, 175.950 223.531 C 175.427 223.854, 175 223.679, 175 223.142 C 175 222.606, 175.563 221.940, 176.250 221.662 C 177.035 221.345, 177.081 221.129, 176.372 221.079 C 175.752 221.036, 174.750 221.596, 174.146 222.324 M 69.500 223 C 69.160 223.550, 69.359 224, 69.941 224 C 70.523 224, 71 223.550, 71 223 C 71 222.450, 70.802 222, 70.559 222 C 70.316 222, 69.840 222.450, 69.500 223 M 68.252 227.662 C 67.480 227.973, 67.235 229.087, 67.610 230.583 C 68.112 232.582, 67.842 233, 66.049 233 C 64.857 233, 64.158 232.554, 64.495 232.008 C 64.832 231.462, 64.648 230.225, 64.085 229.258 C 63.263 227.847, 63.031 227.796, 62.912 229 C 62.830 229.825, 62.836 231.063, 62.925 231.750 C 63.015 232.438, 62.618 233.056, 62.044 233.125 C 59.487 233.431, 59.127 233.539, 58.464 234.202 C 58.078 234.589, 58.474 235.617, 59.345 236.488 C 60.790 237.933, 61.085 237.915, 62.714 236.286 C 63.696 235.304, 65.625 234.500, 67 234.500 C 68.997 234.500, 69.452 234.047, 69.262 232.250 C 69.014 229.910, 70.534 229.101, 71.234 231.201 C 71.545 232.135, 71.798 232.135, 72.376 231.201 C 72.784 230.540, 72.656 230, 72.090 230 C 71.525 230, 71.322 229.325, 71.638 228.500 C 72.212 227.005, 70.766 226.647, 68.252 227.662 M 153.724 228.685 C 152.722 230.408, 154.495 232.728, 156.315 232.077 C 158.043 231.459, 158.036 231.342, 156.165 229.649 C 155.083 228.670, 153.985 228.237, 153.724 228.685 M 89.681 230.390 C 89.309 231.359, 89.881 231.737, 91.573 231.640 C 94.342 231.480, 94.749 230.501, 92.418 229.607 C 90.301 228.795, 90.292 228.797, 89.681 230.390 M 140.943 232.107 C 139.610 234.597, 141.009 236.594, 143.433 235.664 C 144.989 235.067, 145.687 232.892, 144.250 233.118 C 142.294 233.427, 141.863 232.870, 143 231.500 C 143.816 230.516, 143.871 230, 143.158 230 C 142.560 230, 141.563 230.948, 140.943 232.107 M 100 232.941 C 100 233.459, 100.450 234.160, 101 234.500 C 101.550 234.840, 102 234.416, 102 233.559 C 102 232.702, 101.550 232, 101 232 C 100.450 232, 100 232.423, 100 232.941 M 111.872 233.750 C 110.629 235.336, 110.664 235.371, 112.250 234.128 C 113.916 232.821, 114.445 232, 113.622 232 C 113.415 232, 112.627 232.787, 111.872 233.750 M 127 233.787 C 127 234.837, 127.798 235.634, 128.933 235.720 C 130.748 235.857, 130.765 235.748, 129.210 233.933 C 127.176 231.556, 127 231.545, 127 233.787 M 132 233.059 C 132 233.641, 132.450 233.840, 133 233.500 C 133.550 233.160, 134 232.684, 134 232.441 C 134 232.198, 133.550 232, 133 232 C 132.450 232, 132 232.477, 132 233.059 M 115.510 234.016 C 115.856 234.575, 116.557 234.774, 117.069 234.457 C 118.456 233.600, 118.198 233, 116.441 233 C 115.584 233, 115.165 233.457, 115.510 234.016 M 77.333 237.500 C 77.333 238.220, 77.933 238.579, 78.667 238.298 C 79.400 238.016, 80 237.657, 80 237.500 C 80 237.343, 79.400 236.984, 78.667 236.702 C 77.933 236.421, 77.333 236.780, 77.333 237.500 M 83.500 238 C 83.840 238.550, 84.316 239, 84.559 239 C 84.802 239, 85 238.550, 85 238 C 85 237.450, 84.523 237, 83.941 237 C 83.359 237, 83.160 237.450, 83.500 238 M 124 238.787 C 124 239.220, 124.900 239.642, 126 239.725 C 127.100 239.808, 128 239.454, 128 238.938 C 128 238.422, 127.100 238, 126 238 C 124.900 238, 124 238.354, 124 238.787" stroke="none" fill="#f3f3f3" fill-rule="evenodd"/></svg>